<svg width="543" height="108" viewBox="0 0 543 108" fill="none" xmlns="http://www.w3.org/2000/svg">
<path d="M25.375 4.42857H21C21 12.9882 27.8564 19.9286 36.3125 19.9286V29.8929C36.3125 30.5018 36.8047 31 37.4062 31H39.5938C40.1953 31 40.6875 30.5018 40.6875 29.8929V19.9286C40.6875 11.369 33.8311 4.42857 25.375 4.42857ZM51.625 0C45.8691 0 40.8652 3.21763 38.2471 7.97143C40.1406 10.0612 41.542 12.6007 42.2803 15.417C49.9844 14.6074 56 8.01987 56 0H51.625Z" fill="white"/>
<g filter="url(#filter0_d)">
<path d="M64.88 17L37.44 78.36L10 17H12.88L37.68 72.28L62.16 17H64.88ZM79.9038 75.72C82.6771 75.72 85.3171 75 87.8238 73.56C90.3304 72.12 92.4104 70.1467 94.0638 67.64V71.72C92.0904 73.9067 89.9304 75.5067 87.5838 76.52C85.2371 77.48 82.5704 77.96 79.5838 77.96C76.2771 77.96 73.1571 77.08 70.2238 75.32C67.3438 73.56 65.0238 71.2133 63.2638 68.28C61.5571 65.3467 60.7038 62.2267 60.7038 58.92C60.7038 55.3467 61.5571 52.1467 63.2638 49.32C64.9704 46.44 67.2904 44.2 70.2238 42.6C73.2104 41 76.5171 40.2 80.1438 40.2C85.6904 40.2 90.4104 42.3867 94.3038 46.76L69.1838 71.56C70.9438 73 72.6504 74.0667 74.3038 74.76C75.9571 75.4 77.8238 75.72 79.9038 75.72ZM63.2638 58.68C63.2638 63.1067 64.7304 66.8933 67.6638 70.04L91.1038 46.76C89.3438 45.2133 87.6371 44.12 85.9838 43.48C84.3304 42.7867 82.3571 42.44 80.0638 42.44C76.8104 42.44 73.9038 43.16 71.3438 44.6C68.8371 45.9867 66.8638 47.9067 65.4238 50.36C63.9838 52.8133 63.2638 55.5867 63.2638 58.68ZM119.666 93.64C116.626 93.64 113.666 92.9467 110.786 91.56C107.906 90.1733 105.666 88.36 104.066 86.12V82.44C105.452 85 107.612 87.1333 110.546 88.84C113.532 90.5467 116.572 91.4 119.666 91.4C124.786 91.4 128.732 89.88 131.506 86.84C134.279 83.8533 135.666 79.4533 135.666 73.64V68.28C134.226 71.16 131.959 73.5067 128.866 75.32C125.826 77.08 122.626 77.96 119.266 77.96C115.852 77.96 112.679 77.1067 109.746 75.4C106.812 73.6933 104.492 71.4 102.786 68.52C101.079 65.5867 100.226 62.44 100.226 59.08C100.226 55.72 101.079 52.6 102.786 49.72C104.492 46.7867 106.812 44.4667 109.746 42.76C112.679 41.0533 115.852 40.2 119.266 40.2C122.786 40.2 126.039 41.08 129.026 42.84C132.012 44.6 134.226 46.9733 135.666 49.96V41H138.226V73.64C138.226 80.2 136.626 85.16 133.426 88.52C130.279 91.9333 125.692 93.64 119.666 93.64ZM119.426 75.72C122.359 75.72 125.079 74.9733 127.586 73.48C130.092 71.9333 132.066 69.9067 133.506 67.4C134.999 64.84 135.746 62.0667 135.746 59.08C135.746 56.0933 134.999 53.3467 133.506 50.84C132.066 48.28 130.092 46.2533 127.586 44.76C125.079 43.2133 122.359 42.44 119.426 42.44C116.439 42.44 113.666 43.2133 111.106 44.76C108.599 46.2533 106.572 48.28 105.026 50.84C103.532 53.3467 102.786 56.0933 102.786 59.08C102.786 62.0667 103.532 64.84 105.026 67.4C106.572 69.9067 108.599 71.9333 111.106 73.48C113.666 74.9733 116.439 75.72 119.426 75.72ZM165.841 75.72C168.615 75.72 171.255 75 173.761 73.56C176.268 72.12 178.348 70.1467 180.001 67.64V71.72C178.028 73.9067 175.868 75.5067 173.521 76.52C171.175 77.48 168.508 77.96 165.521 77.96C162.215 77.96 159.095 77.08 156.161 75.32C153.281 73.56 150.961 71.2133 149.201 68.28C147.495 65.3467 146.641 62.2267 146.641 58.92C146.641 55.3467 147.495 52.1467 149.201 49.32C150.908 46.44 153.228 44.2 156.161 42.6C159.148 41 162.455 40.2 166.081 40.2C171.628 40.2 176.348 42.3867 180.241 46.76L155.121 71.56C156.881 73 158.588 74.0667 160.241 74.76C161.895 75.4 163.761 75.72 165.841 75.72ZM149.201 58.68C149.201 63.1067 150.668 66.8933 153.601 70.04L177.041 46.76C175.281 45.2133 173.575 44.12 171.921 43.48C170.268 42.7867 168.295 42.44 166.001 42.44C162.748 42.44 159.841 43.16 157.281 44.6C154.775 45.9867 152.801 47.9067 151.361 50.36C149.921 52.8133 149.201 55.5867 149.201 58.68ZM191.843 23V77H189.523V16.12L233.683 70.92V17H236.003V77.88L191.843 23ZM264.344 77.88C260.93 77.88 257.757 77.0267 254.824 75.32C251.89 73.6133 249.57 71.32 247.864 68.44C246.157 65.5067 245.304 62.36 245.304 59C245.304 55.64 246.157 52.52 247.864 49.64C249.57 46.7067 251.89 44.3867 254.824 42.68C257.757 40.9733 260.93 40.12 264.344 40.12C267.81 40.12 271.09 41.0533 274.184 42.92C277.277 44.7333 279.437 47.1067 280.664 50.04V41H283.224V77H280.664V68.04C279.224 71.0267 276.984 73.4267 273.944 75.24C270.957 77 267.757 77.88 264.344 77.88ZM264.504 75.64C267.437 75.64 270.157 74.8933 272.664 73.4C275.17 71.8533 277.144 69.8267 278.584 67.32C280.077 64.76 280.824 61.9867 280.824 59C280.824 56.0667 280.077 53.32 278.584 50.76C277.09 48.2 275.09 46.1733 272.584 44.68C270.077 43.1333 267.357 42.36 264.424 42.36C261.49 42.36 258.744 43.1333 256.184 44.68C253.677 46.2267 251.65 48.28 250.104 50.84C248.61 53.4 247.864 56.1467 247.864 59.08C247.864 62.0133 248.61 64.76 250.104 67.32C251.65 69.8267 253.704 71.8533 256.264 73.4C258.824 74.8933 261.57 75.64 264.504 75.64ZM293.321 41H295.881V49C297.055 46.3333 299.055 44.2 301.881 42.6C304.708 40.9467 307.828 40.12 311.241 40.12C315.668 40.12 319.161 41.5333 321.721 44.36C324.335 47.1333 325.641 51.0267 325.641 56.04V77H323.081V56.04C323.081 51.72 322.015 48.36 319.881 45.96C317.801 43.56 314.868 42.36 311.081 42.36C308.308 42.36 305.748 43 303.401 44.28C301.108 45.5067 299.268 47.2133 297.881 49.4C296.548 51.5867 295.881 54.0667 295.881 56.84V77H293.321V41ZM348.623 77.48C344.676 77.48 341.396 76.28 338.783 73.88C336.223 71.48 334.943 68.1733 334.943 63.96V26.52H337.503V41H348.543V43.24H337.503V63.96C337.503 67.48 338.543 70.2533 340.623 72.28C342.756 74.2533 345.423 75.24 348.623 75.24V77.48ZM372.873 75.72C375.646 75.72 378.286 75 380.793 73.56C383.299 72.12 385.379 70.1467 387.033 67.64V71.72C385.059 73.9067 382.899 75.5067 380.553 76.52C378.206 77.48 375.539 77.96 372.553 77.96C369.246 77.96 366.126 77.08 363.193 75.32C360.313 73.56 357.993 71.2133 356.233 68.28C354.526 65.3467 353.673 62.2267 353.673 58.92C353.673 55.3467 354.526 52.1467 356.233 49.32C357.939 46.44 360.259 44.2 363.193 42.6C366.179 41 369.486 40.2 373.113 40.2C378.659 40.2 383.379 42.3867 387.273 46.76L362.153 71.56C363.913 73 365.619 74.0667 367.273 74.76C368.926 75.4 370.793 75.72 372.873 75.72ZM356.233 58.68C356.233 63.1067 357.699 66.8933 360.633 70.04L384.073 46.76C382.313 45.2133 380.606 44.12 378.953 43.48C377.299 42.7867 375.326 42.44 373.033 42.44C369.779 42.44 366.873 43.16 364.313 44.6C361.806 45.9867 359.833 47.9067 358.393 50.36C356.953 52.8133 356.233 55.5867 356.233 58.68ZM403.994 77.88C401.434 77.88 399.168 77.4533 397.194 76.6C395.221 75.6933 393.808 74.5467 392.954 73.16V68.92C393.968 71.2133 395.354 72.92 397.114 74.04C398.874 75.1067 401.114 75.64 403.834 75.64C406.448 75.64 408.554 74.84 410.154 73.24C411.754 71.5867 412.554 69.48 412.554 66.92C412.554 64.7333 412.101 63.0533 411.194 61.88C410.288 60.6533 408.821 59.4267 406.794 58.2L403.754 56.44C401.568 55.1067 399.914 54.0667 398.794 53.32C397.728 52.52 396.874 51.64 396.234 50.68C395.594 49.6667 395.274 48.4933 395.274 47.16C395.274 45.0267 396.021 43.32 397.514 42.04C399.008 40.76 400.954 40.12 403.354 40.12C406.288 40.12 408.741 40.7867 410.714 42.12V45.64C409.061 43.4533 406.688 42.36 403.594 42.36C401.888 42.36 400.501 42.7867 399.434 43.64C398.368 44.4933 397.834 45.5867 397.834 46.92C397.834 48.0933 398.154 49.1333 398.794 50.04C399.434 50.8933 400.314 51.6933 401.434 52.44C402.608 53.1867 404.528 54.3067 407.194 55.8C409.914 57.3467 411.914 58.9467 413.194 60.6C414.474 62.2 415.114 64.3067 415.114 66.92C415.114 70.2267 414.021 72.8933 411.834 74.92C409.701 76.8933 407.088 77.88 403.994 77.88ZM470.585 17.72C465.305 17.72 460.478 19.08 456.105 21.8C451.785 24.4667 448.345 28.0667 445.785 32.6C443.278 37.08 442.025 41.9067 442.025 47.08C442.025 52.3067 443.305 57.16 445.865 61.64C448.425 66.12 451.812 69.6933 456.025 72.36C460.292 74.9733 464.878 76.28 469.785 76.28C472.665 76.28 475.225 76.0133 477.465 75.48C479.758 74.9467 481.945 74.0933 484.025 72.92V54.12H464.185V51.8H486.665V71.24L486.825 71.16V74.12C484.265 75.6667 481.625 76.7867 478.905 77.48C476.238 78.2267 473.305 78.6 470.105 78.6C464.505 78.6 459.358 77.24 454.665 74.52C449.972 71.7467 446.238 67.96 443.465 63.16C440.745 58.3067 439.385 52.8667 439.385 46.84C439.385 41.0267 440.798 35.72 443.625 30.92C446.505 26.12 450.318 22.3333 455.065 19.56C459.865 16.7867 464.958 15.4 470.345 15.4C474.078 15.4 477.038 15.7467 479.225 16.44C481.412 17.08 483.945 18.2267 486.825 19.88V22.84C484.105 20.9733 481.572 19.6667 479.225 18.92C476.932 18.12 474.052 17.72 470.585 17.72ZM513.488 78.28C509.861 78.28 506.581 77.4 503.648 75.64C500.715 73.8267 498.421 71.4533 496.768 68.52C495.115 65.5333 494.288 62.3067 494.288 58.84C494.288 55.4267 495.115 52.2533 496.768 49.32C498.475 46.3867 500.768 44.0667 503.648 42.36C506.581 40.6 509.835 39.72 513.408 39.72C516.928 39.72 520.128 40.6 523.008 42.36C525.941 44.0667 528.235 46.3867 529.888 49.32C531.541 52.2533 532.368 55.4267 532.368 58.84C532.368 62.4133 531.568 65.6933 529.968 68.68C528.368 71.6133 526.128 73.96 523.248 75.72C520.421 77.4267 517.168 78.28 513.488 78.28ZM513.488 76.04C516.528 76.04 519.301 75.2667 521.808 73.72C524.315 72.1733 526.261 70.12 527.648 67.56C529.088 64.9467 529.808 62.0933 529.808 59C529.808 55.96 529.088 53.1333 527.648 50.52C526.208 47.9067 524.235 45.8267 521.728 44.28C519.221 42.7333 516.448 41.96 513.408 41.96C510.368 41.96 507.568 42.76 505.008 44.36C502.501 45.9067 500.501 47.9867 499.008 50.6C497.568 53.2133 496.848 56.04 496.848 59.08C496.848 62.12 497.568 64.9467 499.008 67.56C500.501 70.12 502.501 72.1733 505.008 73.72C507.568 75.2667 510.395 76.04 513.488 76.04Z" fill="#FCFBFB"/>
</g>
<defs>
<filter id="filter0_d" x="0" y="9.3999" width="542.368" height="98.24" filterUnits="userSpaceOnUse" color-interpolation-filters="sRGB">
<feFlood flood-opacity="0" result="BackgroundImageFix"/>
<feColorMatrix in="SourceAlpha" type="matrix" values="0 0 0 0 0 0 0 0 0 0 0 0 0 0 0 0 0 0 127 0"/>
<feOffset dy="4"/>
<feGaussianBlur stdDeviation="5"/>
<feColorMatrix type="matrix" values="0 0 0 0 0 0 0 0 0 0 0 0 0 0 0 0 0 0 0.25 0"/>
<feBlend mode="normal" in2="BackgroundImageFix" result="effect1_dropShadow"/>
<feBlend mode="normal" in="SourceGraphic" in2="effect1_dropShadow" result="shape"/>
</filter>
</defs>
</svg>
