<svg width="20" height="20" viewBox="0 0 20 20" fill="none" xmlns="http://www.w3.org/2000/svg">
<path d="M10 0.3125C4.64973 0.3125 0.3125 4.64973 0.3125 10C0.3125 15.3503 4.64973 19.6875 10 19.6875C15.3503 19.6875 19.6875 15.3503 19.6875 10C19.6875 4.64973 15.3503 0.3125 10 0.3125ZM14.5755 13.8575C14.5134 13.9305 13.0218 15.6439 10.2845 15.6439C6.97621 15.6439 4.64059 13.1728 4.64059 9.9577C4.64059 6.7818 7.06262 4.35609 10.2563 4.35609C12.8718 4.35609 14.2393 5.81371 14.2962 5.87578C14.3663 5.95222 14.4091 6.04977 14.4179 6.15313C14.4266 6.2565 14.4009 6.35985 14.3446 6.44699L13.4704 7.8007C13.3122 8.04551 12.9714 8.08785 12.7581 7.89035C12.749 7.88199 11.7218 6.95754 10.3409 6.95754C8.53949 6.95754 7.45356 8.26906 7.45356 9.92949C7.45356 11.4764 8.4502 13.0425 10.355 13.0425C11.8666 13.0425 12.905 11.9355 12.9153 11.9243C13.1158 11.7069 13.4645 11.7277 13.6383 11.9654L14.5971 13.2768C14.6594 13.362 14.6911 13.4656 14.6872 13.5709C14.6833 13.6763 14.6439 13.7773 14.5755 13.8575Z" fill="white"/>
</svg>
