<svg width="47" height="43" viewBox="0 0 47 43" fill="none" xmlns="http://www.w3.org/2000/svg">
<rect x="0.686646" y="0.285721" width="46.2536" height="42.1429" rx="21.0714" fill="#E27A70" fill-opacity="0.05"/>
<path d="M41.2628 33.8769L32.5232 25.914C33.8856 23.8765 34.6043 21.5359 34.6 19.1501C34.6 11.95 27.7521 5.71283 19.8497 5.71283C17.9709 5.71255 16.1104 6.04952 14.3746 6.70448C12.6387 7.35944 11.0615 8.31957 9.73298 9.53001C8.40446 10.7405 7.35068 12.1775 6.63184 13.7591C5.91299 15.3407 5.54315 17.0358 5.54346 18.7476C5.54346 25.9456 12.3913 32.1849 20.2914 32.1849C22.8237 32.1869 25.3107 31.573 27.4954 30.4064L36.2813 38.4157C36.6945 38.7912 37.2542 39.002 37.8377 39.002C38.4213 39.002 38.981 38.7912 39.3942 38.4157L41.575 36.4287C42.433 35.6469 42.1208 34.6587 41.2628 33.8769ZM9.9468 18.7476C9.9465 17.5625 10.2024 16.389 10.6999 15.2941C11.1975 14.1992 11.9269 13.2042 12.8465 12.3662C13.7661 11.5281 14.8579 10.8633 16.0595 10.4097C17.2611 9.95617 18.549 9.72272 19.8497 9.72272C25.3215 9.72272 30.1966 14.1625 30.1966 19.1501C30.196 21.5435 29.1522 23.8387 27.2948 25.531C25.4373 27.2234 22.9183 28.1744 20.2914 28.175C14.8196 28.1729 9.9468 23.731 9.9468 18.7476Z" fill="#E27A70"/>
</svg>
