<svg width="116" height="96" viewBox="0 0 116 96" fill="none" xmlns="http://www.w3.org/2000/svg">
<path d="M41.0833 7.99994H16.9167C15.9582 7.92431 15.0019 8.16036 14.2501 8.65809C13.4983 9.15583 13.0101 9.87618 12.8889 10.6666V87.9999H45.1111V10.6666C44.9899 9.87618 44.5017 9.15583 43.7499 8.65809C42.9981 8.16036 42.0417 7.92431 41.0833 7.99994Z" fill="#FFFBFB"/>
<path d="M108.814 82.9067L86.4522 34.1067C86.3021 33.7793 86.0754 33.4795 85.7852 33.2245C85.4951 32.9696 85.147 32.7644 84.761 32.6208C84.375 32.4772 83.9586 32.3979 83.5356 32.3875C83.1126 32.377 82.6912 32.4357 82.2956 32.56L70.8889 36.24V24C70.8889 23.2928 70.5494 22.6145 69.9451 22.1144C69.3409 21.6143 68.5213 21.3334 67.6667 21.3334H51.5556V88.0001H70.8889V39.1734L93.2189 88.0001L108.814 82.9067Z" fill="#FFFBFB"/>
</svg>
