<svg width="80" height="68" viewBox="0 0 80 68" fill="none" xmlns="http://www.w3.org/2000/svg">
<path d="M69.1674 9.93459C68.3815 7.26965 66.7504 4.93254 64.5199 3.2758C62.2895 1.61907 59.5808 0.732558 56.8025 0.750009C53.5825 0.752883 50.48 1.96012 48.105 4.13442C45.7299 6.30871 44.2541 9.29278 43.9676 12.5H36.0363C35.7459 9.28941 34.2652 6.30354 31.8851 4.12927C29.505 1.95501 26.3977 0.749613 23.174 0.750009C20.3993 0.736389 17.6954 1.62476 15.4695 3.28131C13.2436 4.93786 11.6162 7.27287 10.8326 9.93459L0.997828 42.7093C0.890092 43.0743 0.834706 43.4528 0.833328 43.8333V47.75C0.839549 52.9426 2.90532 57.9207 6.57741 61.592C10.2495 65.2634 15.228 67.3282 20.4206 67.3333C24.2263 67.3268 27.9478 66.2122 31.1306 64.1256C34.3133 62.0391 36.8196 59.0708 38.3432 55.5833H41.6567C43.1804 59.0708 45.6867 62.0391 48.8694 64.1256C52.0522 66.2122 55.7737 67.3268 59.5794 67.3333C64.7727 67.3282 69.7518 65.2628 73.424 61.5906C77.0962 57.9184 79.1615 52.9394 79.1667 47.7461V43.8333C79.1667 43.4495 79.1079 43.0735 79.0022 42.7093L69.1674 9.93459ZM20.4206 59.5C17.3052 59.4959 14.3185 58.2567 12.1153 56.0542C9.91199 53.8516 8.67184 50.8654 8.66666 47.75C8.66666 47.4523 8.73324 47.1743 8.75283 46.8805C8.96712 43.9305 10.2879 41.1703 12.4508 39.1527C14.6137 37.1351 17.4589 36.009 20.4167 36C23.533 36 26.5216 37.238 28.7252 39.4415C30.9287 41.6451 32.1667 44.6337 32.1667 47.75V47.7853C32.1532 50.8935 30.9104 53.8701 28.7096 56.065C26.5088 58.26 23.5288 59.4949 20.4206 59.5ZM59.5794 59.5C56.4712 59.4949 53.4912 58.26 51.2904 56.065C49.0896 53.8701 47.8468 50.8935 47.8333 47.7853V47.75C47.8331 46.207 48.1367 44.679 48.727 43.2533C49.3173 41.8277 50.1825 40.5322 51.2734 39.4409C53.4766 37.237 56.4651 35.9986 59.5814 35.9981C62.6977 35.9975 65.6865 37.235 67.8904 39.4382C70.0944 41.6413 71.3328 44.6298 71.3333 47.7461C71.3292 50.8622 70.0895 53.8494 67.8861 56.0528C65.6827 58.2562 62.6955 59.4959 59.5794 59.5Z" fill="white"/>
</svg>
