<svg width="75" height="67" viewBox="0 0 75 67" fill="none" xmlns="http://www.w3.org/2000/svg">
<path d="M28.4076 55.5027C28.0234 54.728 27.3542 54.6495 27.0833 54.6495C26.8125 54.6495 26.1432 54.7267 25.7787 55.4595L24.78 57.4669C23.9505 59.1393 21.5208 58.9548 20.9414 57.1934L18.75 50.5889L17.3685 54.7607C16.6016 57.0717 14.4544 58.625 12.03 58.625H10.4167C9.26563 58.625 8.33334 57.688 8.33334 56.5312C8.33334 55.3745 9.26563 54.4375 10.4167 54.4375H12.03C12.6589 54.4375 13.2161 54.0345 13.4154 53.4351L15.7839 46.285C16.2135 45.0012 17.4037 44.1376 18.75 44.1376C20.0964 44.1376 21.2865 44.9999 21.7149 46.285L23.5221 51.7339C26.0938 49.6153 30.5612 50.4646 32.1159 53.5869C32.362 54.0816 32.8307 54.3655 33.3346 54.4061V43.6599L50.0013 27.029V20.9375H32.2917C30.5729 20.9375 29.1667 19.5242 29.1667 17.7969V0H3.125C1.39323 0 0 1.4002 0 3.14062V63.8594C0 65.5998 1.39323 67 3.125 67H46.875C48.6068 67 50 65.5998 50 63.8594V58.625L33.3333 58.6106C31.2344 58.57 29.3516 57.3962 28.4076 55.5027ZM50 15.9518C50 15.1273 49.6745 14.3291 49.0886 13.7402L36.3412 0.916016C35.7552 0.327148 34.9609 0 34.1276 0H33.3333V16.75H50V15.9518ZM37.5 45.403V54.4375H46.4831L67.5352 33.1362L58.6966 24.2535L37.5 45.403ZM74.0287 21.8967L69.8789 17.7262C68.5847 16.4255 66.4844 16.4255 65.1901 17.7262L61.6419 21.2921L70.4805 30.1749L74.0287 26.6089C75.3242 25.3082 75.3242 23.1974 74.0287 21.8967Z" fill="white"/>
</svg>
