<svg width="81" height="81" viewBox="0 0 81 81" fill="none" xmlns="http://www.w3.org/2000/svg">
<path d="M0 35.4375H34.7143V5.0625H0V35.4375ZM11.5714 15.1875H23.1429V25.3125H11.5714V15.1875ZM46.2857 5.0625V35.4375H81V5.0625H46.2857ZM69.4286 25.3125H57.8571V15.1875H69.4286V25.3125ZM0 75.9375H34.7143V45.5625H0V75.9375ZM11.5714 55.6875H23.1429V65.8125H11.5714V55.6875ZM75.2143 45.5625H81V65.8125H63.6429V60.75H57.8571V75.9375H46.2857V45.5625H63.6429V50.625H75.2143V45.5625ZM75.2143 70.875H81V75.9375H75.2143V70.875ZM63.6429 70.875H69.4286V75.9375H63.6429V70.875Z" fill="white"/>
</svg>
