<svg width="64" height="79" viewBox="0 0 64 79" fill="none" xmlns="http://www.w3.org/2000/svg">
<g clip-path="url(#clip0)">
<path d="M28.7113 77.4061C4.495 44.9052 0 41.5696 0 29.625C0 13.2635 14.3268 0 32 0C49.6732 0 64 13.2635 64 29.625C64 41.5696 59.505 44.9052 35.2887 77.4061C33.6995 79.5314 30.3003 79.5312 28.7113 77.4061ZM32 41.9688C39.3638 41.9688 45.3333 36.4423 45.3333 29.625C45.3333 22.8077 39.3638 17.2812 32 17.2812C24.6362 17.2812 18.6667 22.8077 18.6667 29.625C18.6667 36.4423 24.6362 41.9688 32 41.9688Z" fill="white"/>
<path d="M28.9118 77.2567C24.5862 71.4513 20.8916 66.5786 17.7401 62.4223C12.0637 54.9359 8.14953 49.7737 5.48419 45.6707C3.415 42.4855 2.10919 39.9541 1.31884 37.4833C0.529239 35.0149 0.25 32.5942 0.25 29.625C0.25 13.4194 14.4464 0.25 32 0.25C49.5536 0.25 63.75 13.4194 63.75 29.625C63.75 32.5942 63.4708 35.0149 62.6812 37.4833C61.8908 39.9541 60.585 42.4855 58.5158 45.6707C55.8505 49.7737 51.9363 54.9359 46.2599 62.4223C43.1085 66.5785 39.414 71.4511 35.0884 77.2564C33.5994 79.2479 30.4009 79.2478 28.9118 77.2567ZM32 42.2188C39.4834 42.2188 45.5833 36.5982 45.5833 29.625C45.5833 22.6518 39.4834 17.0312 32 17.0312C24.5166 17.0312 18.4167 22.6518 18.4167 29.625C18.4167 36.5982 24.5166 42.2188 32 42.2188Z" stroke="black" stroke-opacity="0.4" stroke-width="0.5"/>
</g>
<defs>
<clipPath id="clip0">
<rect width="64" height="79" fill="white"/>
</clipPath>
</defs>
</svg>
