<svg width="150" height="133" viewBox="0 0 150 133" fill="none" xmlns="http://www.w3.org/2000/svg">
<path d="M146.143 25.1875H128.786V7.75C128.786 5.61027 127.058 3.875 124.929 3.875H121.071C118.942 3.875 117.214 5.61027 117.214 7.75V25.1875H99.8571C97.7273 25.1875 96 26.9228 96 29.0625V32.9375C96 35.0772 97.7273 36.8125 99.8571 36.8125H117.214V54.25C117.214 56.3897 118.942 58.125 121.071 58.125H124.929C127.058 58.125 128.786 56.3897 128.786 54.25V36.8125H146.143C148.273 36.8125 150 35.0772 150 32.9375V29.0625C150 26.9228 148.273 25.1875 146.143 25.1875Z" fill="#9CD69B"/>
<path d="M109 54.6562V115.969C109 121.61 104.423 126.188 98.7812 126.188H10.2188C4.57715 126.188 0 121.61 0 115.969V54.6562C0 49.0146 4.57715 44.4375 10.2188 44.4375H28.9531L31.5717 37.4334C33.0619 33.4523 36.8727 30.8125 41.1305 30.8125H67.8482C72.1061 30.8125 75.9168 33.4523 77.407 37.4334L80.0469 44.4375H98.7812C104.423 44.4375 109 49.0146 109 54.6562ZM80.0469 85.3125C80.0469 71.2191 68.5934 59.7656 54.5 59.7656C40.4066 59.7656 28.9531 71.2191 28.9531 85.3125C28.9531 99.4059 40.4066 110.859 54.5 110.859C68.5934 110.859 80.0469 99.4059 80.0469 85.3125ZM73.2344 85.3125C73.2344 95.6377 64.8252 104.047 54.5 104.047C44.1748 104.047 35.7656 95.6377 35.7656 85.3125C35.7656 74.9873 44.1748 66.5781 54.5 66.5781C64.8252 66.5781 73.2344 74.9873 73.2344 85.3125Z" fill="#9CD69B"/>
</svg>
