<svg width="38" height="50" viewBox="0 0 38 50" fill="none" xmlns="http://www.w3.org/2000/svg">
<g clip-path="url(#clip0)">
<path d="M17.0474 48.9912C2.66891 28.421 0 26.3099 0 18.75C0 8.39463 8.50656 0 19 0C29.4934 0 38 8.39463 38 18.75C38 26.3099 35.3311 28.421 20.9526 48.9912C20.0091 50.3363 17.9908 50.3362 17.0474 48.9912ZM19 26.5625C23.3723 26.5625 26.9167 23.0647 26.9167 18.75C26.9167 14.4353 23.3723 10.9375 19 10.9375C14.6277 10.9375 11.0833 14.4353 11.0833 18.75C11.0833 23.0647 14.6277 26.5625 19 26.5625Z" fill="#69C5B2"/>
</g>
<defs>
<clipPath id="clip0">
<rect width="38" height="50" fill="white"/>
</clipPath>
</defs>
</svg>
