<svg width="27" height="33" viewBox="0 0 27 33" fill="none" xmlns="http://www.w3.org/2000/svg">
<g clip-path="url(#clip0)">
<path d="M12.1126 32.3342C1.89633 18.7579 0 17.3645 0 12.375C0 5.54045 6.04413 0 13.5 0C20.9559 0 27 5.54045 27 12.375C27 17.3645 25.1037 18.7579 14.8874 32.3342C14.217 33.222 12.783 33.2219 12.1126 32.3342ZM13.5 17.5312C16.6066 17.5312 19.125 15.2227 19.125 12.375C19.125 9.52727 16.6066 7.21875 13.5 7.21875C10.3934 7.21875 7.875 9.52727 7.875 12.375C7.875 15.2227 10.3934 17.5312 13.5 17.5312Z" fill="#E27A70"/>
</g>
<defs>
<clipPath id="clip0">
<rect width="27" height="33" fill="white"/>
</clipPath>
</defs>
</svg>
