<svg width="30" height="30" viewBox="0 0 36 32" fill="none" xmlns="http://www.w3.org/2000/svg">
<path d="M18 0C15.5455 0 13.6278 0.84127 12.2472 2.52381C10.8665 4.20635 10.1761 6.35714 10.1761 8.97619C10.1591 12.2302 11.2841 14.8095 13.5511 16.7143C13.8409 16.9683 13.9432 17.2937 13.858 17.6905L13.2699 18.8333C13.0824 19.2143 12.8054 19.5119 12.4389 19.7262C12.0724 19.9405 11.3011 20.246 10.125 20.6429C10.0739 20.6587 8.99574 20.9841 6.89062 21.619C4.78551 22.254 3.66477 22.6032 3.52841 22.6667C2.09659 23.2222 1.15909 23.8016 0.715909 24.4048C0.238636 25.4048 0 27.9365 0 32H36C36 27.9365 35.7614 25.4048 35.2841 24.4048C34.8409 23.8016 33.9034 23.2222 32.4716 22.6667C32.3352 22.6032 31.2145 22.254 29.1094 21.619C27.0043 20.9841 25.9261 20.6587 25.875 20.6429C24.6989 20.246 23.9276 19.9405 23.5611 19.7262C23.1946 19.5119 22.9176 19.2143 22.7301 18.8333L22.142 17.6905C22.0568 17.2937 22.1591 16.9683 22.4489 16.7143C24.7159 14.8095 25.8409 12.2302 25.8239 8.97619C25.8239 6.35714 25.1335 4.20635 23.7528 2.52381C22.3722 0.84127 20.4545 0 18 0Z" fill="white"/>
</svg>
