<svg width="30" height="30" viewBox="0 0 36 40" fill="none" xmlns="http://www.w3.org/2000/svg">
<path d="M12.75 3.33341H5.25C4.95256 3.3019 4.65576 3.40025 4.42245 3.60764C4.18913 3.81503 4.03762 4.11518 4 4.44452V36.6667H14V4.44452C13.9624 4.11518 13.8109 3.81503 13.5776 3.60764C13.3442 3.40025 13.0474 3.3019 12.75 3.33341Z" fill="#FFFBFB"/>
<path d="M33.77 34.5445L26.83 14.2111C26.7834 14.0747 26.7131 13.9498 26.623 13.8436C26.5329 13.7373 26.4249 13.6519 26.3051 13.592C26.1853 13.5322 26.0561 13.4991 25.9248 13.4948C25.7936 13.4904 25.6628 13.5149 25.54 13.5667L22 15.1V10C22 9.70534 21.8946 9.42273 21.7071 9.21435C21.5196 9.00598 21.2652 8.88892 21 8.88892H16V36.6667H22V16.3222L28.93 36.6667L33.77 34.5445Z" fill="#FFFBFB"/>
</svg>
