<svg width="30" height="30" viewBox="0 0 28 37" fill="none" xmlns="http://www.w3.org/2000/svg">
<g clip-path="url(#clip0)">
<path d="M12.5612 36.2535C1.96656 21.0315 0 19.4693 0 13.875C0 6.21203 6.26799 0 14 0C21.732 0 28 6.21203 28 13.875C28 19.4693 26.0334 21.0315 15.4388 36.2535C14.7435 37.2489 13.2564 37.2488 12.5612 36.2535ZM14 19.6562C17.2217 19.6562 19.8333 17.0679 19.8333 13.875C19.8333 10.6821 17.2217 8.09375 14 8.09375C10.7783 8.09375 8.16667 10.6821 8.16667 13.875C8.16667 17.0679 10.7783 19.6562 14 19.6562Z" fill="white"/>
</g>
<defs>
<clipPath id="clip0">
<rect width="28" height="37" fill="white"/>
</clipPath>
</defs>
</svg>
