<svg width="165" height="54" viewBox="0 0 165 54" fill="none" xmlns="http://www.w3.org/2000/svg">
<path d="M18.464 10L10.232 28.408L2 10H2.864L10.304 26.584L17.648 10H18.464ZM22.9711 27.616C23.8031 27.616 24.5951 27.4 25.3471 26.968C26.0991 26.536 26.7231 25.944 27.2191 25.192V26.416C26.6271 27.072 25.9791 27.552 25.2751 27.856C24.5711 28.144 23.7711 28.288 22.8751 28.288C21.8831 28.288 20.9471 28.024 20.0671 27.496C19.2031 26.968 18.5071 26.264 17.9791 25.384C17.4671 24.504 17.2111 23.568 17.2111 22.576C17.2111 21.504 17.4671 20.544 17.9791 19.696C18.4911 18.832 19.1871 18.16 20.0671 17.68C20.9631 17.2 21.9551 16.96 23.0431 16.96C24.7071 16.96 26.1231 17.616 27.2911 18.928L19.7551 26.368C20.2831 26.8 20.7951 27.12 21.2911 27.328C21.7871 27.52 22.3471 27.616 22.9711 27.616ZM17.9791 22.504C17.9791 23.832 18.4191 24.968 19.2991 25.912L26.3311 18.928C25.8031 18.464 25.2911 18.136 24.7951 17.944C24.2991 17.736 23.7071 17.632 23.0191 17.632C22.0431 17.632 21.1711 17.848 20.4031 18.28C19.6511 18.696 19.0591 19.272 18.6271 20.008C18.1951 20.744 17.9791 21.576 17.9791 22.504ZM34.8997 32.992C33.9877 32.992 33.0997 32.784 32.2357 32.368C31.3717 31.952 30.6997 31.408 30.2197 30.736V29.632C30.6357 30.4 31.2837 31.04 32.1637 31.552C33.0597 32.064 33.9717 32.32 34.8997 32.32C36.4357 32.32 37.6197 31.864 38.4517 30.952C39.2837 30.056 39.6997 28.736 39.6997 26.992V25.384C39.2677 26.248 38.5877 26.952 37.6597 27.496C36.7477 28.024 35.7877 28.288 34.7797 28.288C33.7557 28.288 32.8037 28.032 31.9237 27.52C31.0437 27.008 30.3477 26.32 29.8357 25.456C29.3237 24.576 29.0677 23.632 29.0677 22.624C29.0677 21.616 29.3237 20.68 29.8357 19.816C30.3477 18.936 31.0437 18.24 31.9237 17.728C32.8037 17.216 33.7557 16.96 34.7797 16.96C35.8357 16.96 36.8117 17.224 37.7077 17.752C38.6037 18.28 39.2677 18.992 39.6997 19.888V17.2H40.4677V26.992C40.4677 28.96 39.9877 30.448 39.0277 31.456C38.0837 32.48 36.7077 32.992 34.8997 32.992ZM34.8277 27.616C35.7077 27.616 36.5237 27.392 37.2757 26.944C38.0277 26.48 38.6197 25.872 39.0517 25.12C39.4997 24.352 39.7237 23.52 39.7237 22.624C39.7237 21.728 39.4997 20.904 39.0517 20.152C38.6197 19.384 38.0277 18.776 37.2757 18.328C36.5237 17.864 35.7077 17.632 34.8277 17.632C33.9317 17.632 33.0997 17.864 32.3317 18.328C31.5797 18.776 30.9717 19.384 30.5077 20.152C30.0597 20.904 29.8357 21.728 29.8357 22.624C29.8357 23.52 30.0597 24.352 30.5077 25.12C30.9717 25.872 31.5797 26.48 32.3317 26.944C33.0997 27.392 33.9317 27.616 34.8277 27.616ZM48.7524 27.616C49.5844 27.616 50.3764 27.4 51.1284 26.968C51.8804 26.536 52.5044 25.944 53.0004 25.192V26.416C52.4084 27.072 51.7604 27.552 51.0564 27.856C50.3524 28.144 49.5524 28.288 48.6564 28.288C47.6644 28.288 46.7284 28.024 45.8484 27.496C44.9844 26.968 44.2884 26.264 43.7604 25.384C43.2484 24.504 42.9924 23.568 42.9924 22.576C42.9924 21.504 43.2484 20.544 43.7604 19.696C44.2724 18.832 44.9684 18.16 45.8484 17.68C46.7444 17.2 47.7364 16.96 48.8244 16.96C50.4884 16.96 51.9044 17.616 53.0724 18.928L45.5364 26.368C46.0644 26.8 46.5764 27.12 47.0724 27.328C47.5684 27.52 48.1284 27.616 48.7524 27.616ZM43.7604 22.504C43.7604 23.832 44.2004 24.968 45.0804 25.912L52.1124 18.928C51.5844 18.464 51.0724 18.136 50.5764 17.944C50.0804 17.736 49.4884 17.632 48.8004 17.632C47.8244 17.632 46.9524 17.848 46.1844 18.28C45.4324 18.696 44.8404 19.272 44.4084 20.008C43.9764 20.744 43.7604 21.576 43.7604 22.504ZM56.5529 11.8V28H55.8569V9.736L69.1049 26.176V10H69.8009V28.264L56.5529 11.8ZM78.3031 28.264C77.2791 28.264 76.3271 28.008 75.4471 27.496C74.5671 26.984 73.8711 26.296 73.3591 25.432C72.8471 24.552 72.5911 23.608 72.5911 22.6C72.5911 21.592 72.8471 20.656 73.3591 19.792C73.8711 18.912 74.5671 18.216 75.4471 17.704C76.3271 17.192 77.2791 16.936 78.3031 16.936C79.3431 16.936 80.3271 17.216 81.2551 17.776C82.1831 18.32 82.8311 19.032 83.1991 19.912V17.2H83.9671V28H83.1991V25.312C82.7671 26.208 82.0951 26.928 81.1831 27.472C80.2871 28 79.3271 28.264 78.3031 28.264ZM78.3511 27.592C79.2311 27.592 80.0471 27.368 80.7991 26.92C81.5511 26.456 82.1431 25.848 82.5751 25.096C83.0231 24.328 83.2471 23.496 83.2471 22.6C83.2471 21.72 83.0231 20.896 82.5751 20.128C82.1271 19.36 81.5271 18.752 80.7751 18.304C80.0231 17.84 79.2071 17.608 78.3271 17.608C77.4471 17.608 76.6231 17.84 75.8551 18.304C75.1031 18.768 74.4951 19.384 74.0311 20.152C73.5831 20.92 73.3591 21.744 73.3591 22.624C73.3591 23.504 73.5831 24.328 74.0311 25.096C74.4951 25.848 75.1111 26.456 75.8791 26.92C76.6471 27.368 77.4711 27.592 78.3511 27.592ZM86.9964 17.2H87.7644V19.6C88.1164 18.8 88.7164 18.16 89.5644 17.68C90.4124 17.184 91.3484 16.936 92.3724 16.936C93.7004 16.936 94.7484 17.36 95.5164 18.208C96.3004 19.04 96.6924 20.208 96.6924 21.712V28H95.9244V21.712C95.9244 20.416 95.6044 19.408 94.9644 18.688C94.3404 17.968 93.4604 17.608 92.3244 17.608C91.4924 17.608 90.7244 17.8 90.0204 18.184C89.3324 18.552 88.7804 19.064 88.3644 19.72C87.9644 20.376 87.7644 21.12 87.7644 21.952V28H86.9964V17.2ZM103.587 28.144C102.403 28.144 101.419 27.784 100.635 27.064C99.8669 26.344 99.4829 25.352 99.4829 24.088V12.856H100.251V17.2H103.563V17.872H100.251V24.088C100.251 25.144 100.563 25.976 101.187 26.584C101.827 27.176 102.627 27.472 103.587 27.472V28.144ZM110.862 27.616C111.694 27.616 112.486 27.4 113.238 26.968C113.99 26.536 114.614 25.944 115.11 25.192V26.416C114.518 27.072 113.87 27.552 113.166 27.856C112.462 28.144 111.662 28.288 110.766 28.288C109.774 28.288 108.838 28.024 107.958 27.496C107.094 26.968 106.398 26.264 105.87 25.384C105.358 24.504 105.102 23.568 105.102 22.576C105.102 21.504 105.358 20.544 105.87 19.696C106.382 18.832 107.078 18.16 107.958 17.68C108.854 17.2 109.846 16.96 110.934 16.96C112.598 16.96 114.014 17.616 115.182 18.928L107.646 26.368C108.174 26.8 108.686 27.12 109.182 27.328C109.678 27.52 110.238 27.616 110.862 27.616ZM105.87 22.504C105.87 23.832 106.31 24.968 107.19 25.912L114.222 18.928C113.694 18.464 113.182 18.136 112.686 17.944C112.19 17.736 111.598 17.632 110.91 17.632C109.934 17.632 109.062 17.848 108.294 18.28C107.542 18.696 106.95 19.272 106.518 20.008C106.086 20.744 105.87 21.576 105.87 22.504ZM120.198 28.264C119.43 28.264 118.75 28.136 118.158 27.88C117.566 27.608 117.142 27.264 116.886 26.848V25.576C117.19 26.264 117.606 26.776 118.134 27.112C118.662 27.432 119.334 27.592 120.15 27.592C120.934 27.592 121.566 27.352 122.046 26.872C122.526 26.376 122.766 25.744 122.766 24.976C122.766 24.32 122.63 23.816 122.358 23.464C122.086 23.096 121.646 22.728 121.038 22.36L120.126 21.832C119.47 21.432 118.974 21.12 118.638 20.896C118.318 20.656 118.062 20.392 117.87 20.104C117.678 19.8 117.582 19.448 117.582 19.048C117.582 18.408 117.806 17.896 118.254 17.512C118.702 17.128 119.286 16.936 120.006 16.936C120.886 16.936 121.622 17.136 122.214 17.536V18.592C121.718 17.936 121.006 17.608 120.078 17.608C119.566 17.608 119.15 17.736 118.83 17.992C118.51 18.248 118.35 18.576 118.35 18.976C118.35 19.328 118.446 19.64 118.638 19.912C118.83 20.168 119.094 20.408 119.43 20.632C119.782 20.856 120.358 21.192 121.158 21.64C121.974 22.104 122.574 22.584 122.958 23.08C123.342 23.56 123.534 24.192 123.534 24.976C123.534 25.968 123.206 26.768 122.55 27.376C121.91 27.968 121.126 28.264 120.198 28.264ZM140.176 10.216C138.592 10.216 137.144 10.624 135.832 11.44C134.536 12.24 133.504 13.32 132.736 14.68C131.984 16.024 131.608 17.472 131.608 19.024C131.608 20.592 131.992 22.048 132.76 23.392C133.528 24.736 134.544 25.808 135.808 26.608C137.088 27.392 138.464 27.784 139.936 27.784C140.8 27.784 141.568 27.704 142.24 27.544C142.928 27.384 143.584 27.128 144.208 26.776V21.136H138.256V20.44H145V26.272L145.048 26.248V27.136C144.28 27.6 143.488 27.936 142.672 28.144C141.872 28.368 140.992 28.48 140.032 28.48C138.352 28.48 136.808 28.072 135.4 27.256C133.992 26.424 132.872 25.288 132.04 23.848C131.224 22.392 130.816 20.76 130.816 18.952C130.816 17.208 131.24 15.616 132.088 14.176C132.952 12.736 134.096 11.6 135.52 10.768C136.96 9.936 138.488 9.52 140.104 9.52C141.224 9.52 142.112 9.624 142.768 9.832C143.424 10.024 144.184 10.368 145.048 10.864V11.752C144.232 11.192 143.472 10.8 142.768 10.576C142.08 10.336 141.216 10.216 140.176 10.216ZM153.046 28.384C151.958 28.384 150.974 28.12 150.094 27.592C149.214 27.048 148.526 26.336 148.03 25.456C147.534 24.56 147.286 23.592 147.286 22.552C147.286 21.528 147.534 20.576 148.03 19.696C148.542 18.816 149.23 18.12 150.094 17.608C150.974 17.08 151.95 16.816 153.022 16.816C154.078 16.816 155.038 17.08 155.902 17.608C156.782 18.12 157.47 18.816 157.966 19.696C158.462 20.576 158.71 21.528 158.71 22.552C158.71 23.624 158.47 24.608 157.99 25.504C157.51 26.384 156.838 27.088 155.974 27.616C155.126 28.128 154.15 28.384 153.046 28.384ZM153.046 27.712C153.958 27.712 154.79 27.48 155.542 27.016C156.294 26.552 156.878 25.936 157.294 25.168C157.726 24.384 157.942 23.528 157.942 22.6C157.942 21.688 157.726 20.84 157.294 20.056C156.862 19.272 156.27 18.648 155.518 18.184C154.766 17.72 153.934 17.488 153.022 17.488C152.11 17.488 151.27 17.728 150.502 18.208C149.75 18.672 149.15 19.296 148.702 20.08C148.27 20.864 148.054 21.712 148.054 22.624C148.054 23.536 148.27 24.384 148.702 25.168C149.15 25.936 149.75 26.552 150.502 27.016C151.27 27.48 152.118 27.712 153.046 27.712Z" fill="white"/>
<path d="M18.464 10L19.3769 10.4082L20.0066 9H18.464V10ZM10.232 28.408L9.31912 28.8162L10.232 30.8576L11.1449 28.8162L10.232 28.408ZM2 10V9H0.457365L1.08712 10.4082L2 10ZM2.864 10L3.77639 9.59068L3.5114 9H2.864V10ZM10.304 26.584L9.39161 26.9933L10.3099 29.0403L11.2184 26.9889L10.304 26.584ZM17.648 10V9H16.9972L16.7336 9.59509L17.648 10ZM17.5511 9.59176L9.31912 27.9998L11.1449 28.8162L19.3769 10.4082L17.5511 9.59176ZM11.1449 27.9998L2.91288 9.59176L1.08712 10.4082L9.31912 28.8162L11.1449 27.9998ZM2 11H2.864V9H2V11ZM1.95161 10.4093L9.39161 26.9933L11.2164 26.1747L3.77639 9.59068L1.95161 10.4093ZM11.2184 26.9889L18.5624 10.4049L16.7336 9.59509L9.38964 26.1791L11.2184 26.9889ZM17.648 11H18.464V9H17.648V11ZM25.3471 26.968L24.849 26.1009L25.3471 26.968ZM27.2191 25.192H28.2191V21.8597L26.3844 24.6414L27.2191 25.192ZM27.2191 26.416L27.9615 27.086L28.2191 26.8005V26.416H27.2191ZM25.2751 27.856L25.6538 28.7815L25.6627 28.7779L25.6716 28.7741L25.2751 27.856ZM20.0671 27.496L19.5457 28.3493L19.5526 28.3535L20.0671 27.496ZM17.9791 25.384L17.1147 25.8869L17.1216 25.8985L17.9791 25.384ZM17.9791 19.696L18.8352 20.2129L18.8394 20.2058L17.9791 19.696ZM20.0671 17.68L19.5949 16.7985L19.5883 16.8021L20.0671 17.68ZM27.2911 18.928L27.9937 19.6396L28.6695 18.9724L28.038 18.2631L27.2911 18.928ZM19.7551 26.368L19.0526 25.6564L18.2611 26.4377L19.1219 27.142L19.7551 26.368ZM21.2911 27.328L20.9044 28.2502L20.9172 28.2556L20.9301 28.2606L21.2911 27.328ZM19.2991 25.912L18.5677 26.5939L19.2715 27.3489L20.0038 26.6215L19.2991 25.912ZM26.3311 18.928L27.0358 19.6375L27.7952 18.8833L26.9912 18.1768L26.3311 18.928ZM24.7951 17.944L24.4084 18.8662L24.4212 18.8716L24.4341 18.8766L24.7951 17.944ZM20.4031 18.28L20.8872 19.1551L20.8934 19.1516L20.4031 18.28ZM22.9711 28.616C23.9855 28.616 24.9484 28.3503 25.8452 27.8351L24.849 26.1009C24.2419 26.4497 23.6208 26.616 22.9711 26.616V28.616ZM25.8452 27.8351C26.7379 27.3223 27.4754 26.6197 28.0539 25.7426L26.3844 24.6414C25.9709 25.2683 25.4603 25.7497 24.849 26.1009L25.8452 27.8351ZM26.2191 25.192V26.416H28.2191V25.192H26.2191ZM26.4767 25.746C25.9663 26.3116 25.4323 26.6989 24.8787 26.9379L25.6716 28.7741C26.526 28.4051 27.2879 27.8324 27.9615 27.086L26.4767 25.746ZM24.8965 26.9305C24.3321 27.1614 23.664 27.288 22.8751 27.288V29.288C23.8783 29.288 24.8102 29.1266 25.6538 28.7815L24.8965 26.9305ZM22.8751 27.288C22.0708 27.288 21.3118 27.0766 20.5816 26.6385L19.5526 28.3535C20.5824 28.9714 21.6954 29.288 22.8751 29.288V27.288ZM20.5886 26.6427C19.8642 26.2001 19.2828 25.6131 18.8366 24.8695L17.1216 25.8985C17.7315 26.9149 18.542 27.7359 19.5457 28.3493L20.5886 26.6427ZM18.8435 24.8811C18.4179 24.1496 18.2111 23.3865 18.2111 22.576H16.2111C16.2111 23.7495 16.5164 24.8584 17.1148 25.8869L18.8435 24.8811ZM18.2111 22.576C18.2111 21.6707 18.4251 20.8921 18.8352 20.2129L17.1231 19.1791C16.5092 20.1959 16.2111 21.3373 16.2111 22.576H18.2111ZM18.8394 20.2058C19.2599 19.4963 19.8242 18.9516 20.546 18.5579L19.5883 16.8021C18.55 17.3684 17.7224 18.1677 17.1188 19.1862L18.8394 20.2058ZM20.5393 18.5615C21.2799 18.1647 22.108 17.96 23.0431 17.96V15.96C21.8023 15.96 20.6463 16.2353 19.5949 16.7985L20.5393 18.5615ZM23.0431 17.96C24.4042 17.96 25.554 18.4806 26.5442 19.5929L28.038 18.2631C26.6922 16.7514 25.01 15.96 23.0431 15.96V17.96ZM26.5886 18.2164L19.0526 25.6564L20.4577 27.0796L27.9937 19.6396L26.5886 18.2164ZM19.1219 27.142C19.7055 27.6195 20.2994 27.9965 20.9044 28.2502L21.6779 26.4058C21.2908 26.2435 20.8608 25.9805 20.3884 25.594L19.1219 27.142ZM20.9301 28.2606C21.5593 28.5041 22.2447 28.616 22.9711 28.616V26.616C22.4496 26.616 22.0149 26.5359 21.6521 26.3954L20.9301 28.2606ZM16.9791 22.504C16.9791 24.077 17.5096 25.4589 18.5677 26.5939L20.0306 25.2301C19.3286 24.4771 18.9791 23.587 18.9791 22.504H16.9791ZM20.0038 26.6215L27.0358 19.6375L25.6264 18.2185L18.5944 25.2025L20.0038 26.6215ZM26.9912 18.1768C26.4017 17.6588 25.7906 17.257 25.1561 17.0114L24.4341 18.8766C24.7916 19.015 25.2045 19.2692 25.671 19.6792L26.9912 18.1768ZM25.1819 17.0218C24.5344 16.7503 23.8044 16.632 23.0191 16.632V18.632C23.6099 18.632 24.0639 18.7217 24.4084 18.8662L25.1819 17.0218ZM23.0191 16.632C21.8903 16.632 20.8462 16.8834 19.9129 17.4084L20.8934 19.1516C21.496 18.8126 22.196 18.632 23.0191 18.632V16.632ZM19.9191 17.405C19.0113 17.9071 18.2881 18.61 17.7647 19.5018L19.4895 20.5142C19.8301 19.934 20.2909 19.4849 20.8872 19.155L19.9191 17.405ZM17.7647 19.5018C17.2348 20.4046 16.9791 21.4141 16.9791 22.504H18.9791C18.9791 21.7379 19.1554 21.0834 19.4895 20.5142L17.7647 19.5018ZM32.2357 32.368L31.8019 33.269L32.2357 32.368ZM30.2197 30.736H29.2197V31.0565L29.406 31.3172L30.2197 30.736ZM30.2197 29.632L31.099 29.1557L29.2197 29.632H30.2197ZM32.1637 31.552L31.6608 32.4164L31.6675 32.4202L32.1637 31.552ZM38.4517 30.952L37.7189 30.2715L37.7129 30.278L38.4517 30.952ZM39.6997 25.384H40.6997L38.8053 24.9368L39.6997 25.384ZM37.6597 27.496L38.1607 28.3614L38.1654 28.3587L37.6597 27.496ZM31.9237 27.52L31.4208 28.3843L31.9237 27.52ZM29.8357 25.456L28.9713 25.9589L28.9754 25.9658L29.8357 25.456ZM29.8357 19.816L30.696 20.3258L30.7 20.3189L29.8357 19.816ZM31.9237 17.728L31.4208 16.8637V16.8637L31.9237 17.728ZM39.6997 19.888L38.7989 20.3223L40.6997 19.888H39.6997ZM39.6997 17.2V16.2H38.6997V17.2H39.6997ZM40.4677 17.2H41.4677V16.2H40.4677V17.2ZM39.0277 31.456L38.3036 30.7663L38.298 30.7722L38.2924 30.7782L39.0277 31.456ZM37.2757 26.944L37.7875 27.8031L37.7942 27.7991L37.8008 27.795L37.2757 26.944ZM39.0517 25.12L38.1879 24.6161L38.1846 24.6219L39.0517 25.12ZM39.0517 20.152L38.1801 20.6423L38.1862 20.6531L38.1926 20.6638L39.0517 20.152ZM37.2757 18.328L36.7506 19.179L36.7572 19.1831L36.7639 19.1871L37.2757 18.328ZM32.3317 18.328L32.8435 19.1871L32.8488 19.1839L32.3317 18.328ZM30.5077 20.152L29.6518 19.6349L29.6486 19.6402L30.5077 20.152ZM30.5077 25.12L29.6439 25.6239L29.6501 25.6346L29.6567 25.6451L30.5077 25.12ZM32.3317 26.944L31.8066 27.795L31.8171 27.8015L31.8278 27.8078L32.3317 26.944ZM34.8997 31.992C34.1456 31.992 33.4053 31.8213 32.6695 31.467L31.8019 33.269C32.7941 33.7467 33.8298 33.992 34.8997 33.992V31.992ZM32.6695 31.467C31.9324 31.1121 31.401 30.6693 31.0334 30.1548L29.406 31.3172C29.9984 32.1467 30.8109 32.7919 31.8019 33.269L32.6695 31.467ZM31.2197 30.736V29.632H29.2197V30.736H31.2197ZM29.3404 30.1083C29.8575 31.0629 30.6488 31.8275 31.6608 32.4163L32.6666 30.6877C31.9186 30.2525 31.4139 29.7371 31.099 29.1557L29.3404 30.1083ZM31.6675 32.4202C32.6973 33.0087 33.7787 33.32 34.8997 33.32V31.32C34.1646 31.32 33.422 31.1193 32.6598 30.6838L31.6675 32.4202ZM34.8997 33.32C36.6431 33.32 38.1244 32.7945 39.1905 31.626L37.7129 30.278C37.115 30.9335 36.2283 31.32 34.8997 31.32V33.32ZM39.1845 31.6325C40.2494 30.4856 40.6997 28.8812 40.6997 26.992H38.6997C38.6997 28.5908 38.3179 29.6264 37.7189 30.2715L39.1845 31.6325ZM40.6997 26.992V25.384H38.6997V26.992H40.6997ZM38.8053 24.9368C38.4695 25.6083 37.9345 26.1757 37.154 26.6333L38.1654 28.3587C39.2408 27.7283 40.0659 26.8877 40.5941 25.8312L38.8053 24.9368ZM37.1586 26.6306C36.3917 27.0746 35.6036 27.288 34.7797 27.288V29.288C35.9718 29.288 37.1037 28.9734 38.1607 28.3614L37.1586 26.6306ZM34.7797 27.288C33.9313 27.288 33.1529 27.0783 32.4266 26.6557L31.4208 28.3843C32.4544 28.9857 33.5801 29.288 34.7797 29.288V27.288ZM32.4266 26.6557C31.6919 26.2282 31.1198 25.6614 30.696 24.9462L28.9754 25.9658C29.5756 26.9786 30.3955 27.7878 31.4208 28.3843L32.4266 26.6557ZM30.7 24.9531C30.2759 24.2242 30.0677 23.4535 30.0677 22.624H28.0677C28.0677 23.8105 28.3714 24.9278 28.9713 25.9589L30.7 24.9531ZM30.0677 22.624C30.0677 21.7947 30.2758 21.0349 30.696 20.3258L28.9754 19.3062C28.3716 20.3251 28.0677 21.4373 28.0677 22.624H30.0677ZM30.7 20.3189C31.1249 19.5887 31.6963 19.0172 32.4266 18.5923L31.4208 16.8637C30.391 17.4628 29.5705 18.2833 28.9713 19.3131L30.7 20.3189ZM32.4266 18.5923C33.1529 18.1697 33.9313 17.96 34.7797 17.96V15.96C33.5801 15.96 32.4544 16.2623 31.4208 16.8637L32.4266 18.5923ZM34.7797 17.96C35.66 17.96 36.4603 18.1776 37.2 18.6135L38.2154 16.8905C37.1631 16.2704 36.0114 15.96 34.7797 15.96V17.96ZM37.2 18.6135C37.9338 19.046 38.4569 19.6128 38.7989 20.3223L40.6005 19.4537C40.0785 18.3712 39.2736 17.514 38.2154 16.8905L37.2 18.6135ZM40.6997 19.888V17.2H38.6997V19.888H40.6997ZM39.6997 18.2H40.4677V16.2H39.6997V18.2ZM39.4677 17.2V26.992H41.4677V17.2H39.4677ZM39.4677 26.992C39.4677 28.8099 39.0245 30.0093 38.3036 30.7663L39.7518 32.1457C40.9509 30.8867 41.4677 29.1101 41.4677 26.992H39.4677ZM38.2924 30.7782C37.5901 31.54 36.5163 31.992 34.8997 31.992V33.992C36.899 33.992 38.5772 33.42 39.7629 32.1338L38.2924 30.7782ZM34.8277 28.616C35.8869 28.616 36.8798 28.3438 37.7875 27.8031L36.7639 26.0849C36.1675 26.4402 35.5285 26.616 34.8277 26.616V28.616ZM37.8008 27.795C38.6916 27.2454 39.4023 26.5172 39.9188 25.6181L38.1846 24.6219C37.8371 25.2268 37.3638 25.7146 36.7506 26.093L37.8008 27.795ZM39.9155 25.6239C40.4534 24.7017 40.7237 23.6956 40.7237 22.624H38.7237C38.7237 23.3444 38.546 24.0023 38.1879 24.6161L39.9155 25.6239ZM40.7237 22.624C40.7237 21.5523 40.4533 20.5508 39.9108 19.6402L38.1926 20.6638C38.5461 21.2572 38.7237 21.9037 38.7237 22.624H40.7237ZM39.9233 19.6617C39.4062 18.7425 38.6906 18.0069 37.7875 17.4689L36.7639 19.1871C37.3648 19.5451 37.8332 20.0255 38.1801 20.6423L39.9233 19.6617ZM37.8008 17.477C36.8916 16.916 35.894 16.632 34.8277 16.632V18.632C35.5214 18.632 36.1557 18.812 36.7506 19.179L37.8008 17.477ZM34.8277 16.632C33.7491 16.632 32.7384 16.914 31.8146 17.4721L32.8488 19.1839C33.461 18.814 34.1142 18.632 34.8277 18.632V16.632ZM31.8199 17.4689C30.9232 18.0031 30.1985 18.73 29.6518 19.6349L31.3636 20.6691C31.7449 20.038 32.2362 19.5489 32.8435 19.1871L31.8199 17.4689ZM29.6486 19.6402C29.1061 20.5508 28.8357 21.5523 28.8357 22.624H30.8357C30.8357 21.9037 31.0133 21.2572 31.3668 20.6638L29.6486 19.6402ZM28.8357 22.624C28.8357 23.6956 29.106 24.7017 29.6439 25.6239L31.3715 24.6161C31.0134 24.0023 30.8357 23.3444 30.8357 22.624H28.8357ZM29.6567 25.6451C30.2024 26.5296 30.922 27.2493 31.8066 27.795L32.8568 26.093C32.2373 25.7107 31.7409 25.2144 31.3587 24.5949L29.6567 25.6451ZM31.8278 27.8078C32.75 28.3457 33.7561 28.616 34.8277 28.616V26.616C34.1073 26.616 33.4494 26.4383 32.8356 26.0802L31.8278 27.8078ZM51.1284 26.968L50.6303 26.1009H50.6302L51.1284 26.968ZM53.0004 25.192H54.0004V21.8597L52.1656 24.6414L53.0004 25.192ZM53.0004 26.416L53.7428 27.086L54.0004 26.8005V26.416H53.0004ZM51.0564 27.856L51.435 28.7815L51.4439 28.7779L51.4528 28.7741L51.0564 27.856ZM45.8484 27.496L45.3269 28.3493L45.3339 28.3535L45.8484 27.496ZM43.7604 25.384L42.8959 25.8869L42.9029 25.8985L43.7604 25.384ZM43.7604 19.696L44.6165 20.2129L44.6207 20.2058L43.7604 19.696ZM45.8484 17.68L45.3761 16.7985L45.3695 16.8021L45.8484 17.68ZM53.0724 18.928L53.7749 19.6396L54.4508 18.9724L53.8193 18.2631L53.0724 18.928ZM45.5364 26.368L44.8338 25.6564L44.0424 26.4377L44.9031 27.142L45.5364 26.368ZM47.0724 27.328L46.6856 28.2502L46.6984 28.2556L46.7114 28.2606L47.0724 27.328ZM45.0804 25.912L44.3489 26.5939L45.0527 27.3489L45.7851 26.6215L45.0804 25.912ZM52.1124 18.928L52.8171 19.6375L53.5764 18.8833L52.7725 18.1768L52.1124 18.928ZM50.5764 17.944L50.1896 18.8662L50.2024 18.8716L50.2154 18.8766L50.5764 17.944ZM46.1844 18.28L46.6684 19.1551L46.6746 19.1516L46.1844 18.28ZM48.7524 28.616C49.7667 28.616 50.7296 28.3503 51.6265 27.8351L50.6302 26.1009C50.0231 26.4497 49.402 26.616 48.7524 26.616V28.616ZM51.6265 27.8351C52.5192 27.3223 53.2566 26.6197 53.8351 25.7426L52.1656 24.6414C51.7521 25.2683 51.2416 25.7497 50.6303 26.1009L51.6265 27.8351ZM52.0004 25.192V26.416H54.0004V25.192H52.0004ZM52.258 25.746C51.7476 26.3116 51.2135 26.6989 50.6599 26.9379L51.4528 28.7741C52.3072 28.4051 53.0692 27.8324 53.7428 27.086L52.258 25.746ZM50.6777 26.9305C50.1133 27.1614 49.4453 27.288 48.6564 27.288V29.288C49.6595 29.288 50.5914 29.1266 51.435 28.7815L50.6777 26.9305ZM48.6564 27.288C47.8521 27.288 47.0931 27.0766 46.3629 26.6385L45.3339 28.3535C46.3637 28.9714 47.4767 29.288 48.6564 29.288V27.288ZM46.3698 26.6427C45.6455 26.2001 45.064 25.6131 44.6179 24.8695L42.9029 25.8985C43.5127 26.9149 44.3233 27.7359 45.3269 28.3493L46.3698 26.6427ZM44.6247 24.8811C44.1991 24.1496 43.9924 23.3865 43.9924 22.576H41.9924C41.9924 23.7495 42.2976 24.8584 42.896 25.8869L44.6247 24.8811ZM43.9924 22.576C43.9924 21.6707 44.2063 20.8921 44.6164 20.2129L42.9043 19.1791C42.2904 20.1959 41.9924 21.3373 41.9924 22.576H43.9924ZM44.6207 20.2058C45.0411 19.4963 45.6055 18.9516 46.3272 18.5579L45.3695 16.8021C44.3313 17.3684 43.5036 18.1677 42.9001 19.1862L44.6207 20.2058ZM46.3206 18.5615C47.0612 18.1647 47.8892 17.96 48.8244 17.96V15.96C47.5835 15.96 46.4276 16.2353 45.3762 16.7985L46.3206 18.5615ZM48.8244 17.96C50.1855 17.96 51.3353 18.4806 52.3255 19.5929L53.8193 18.2631C52.4735 16.7514 50.7913 15.96 48.8244 15.96V17.96ZM52.3698 18.2164L44.8338 25.6564L46.2389 27.0796L53.7749 19.6396L52.3698 18.2164ZM44.9031 27.142C45.4867 27.6195 46.0807 27.9965 46.6856 28.2502L47.4591 26.4058C47.0721 26.2435 46.642 25.9805 46.1696 25.594L44.9031 27.142ZM46.7114 28.2606C47.3406 28.5041 48.0259 28.616 48.7524 28.616V26.616C48.2308 26.616 47.7962 26.5359 47.4334 26.3954L46.7114 28.2606ZM42.7604 22.504C42.7604 24.077 43.2909 25.4589 44.3489 26.5939L45.8118 25.2301C45.1099 24.4771 44.7604 23.587 44.7604 22.504H42.7604ZM45.7851 26.6215L52.8171 19.6375L51.4077 18.2185L44.3757 25.2025L45.7851 26.6215ZM52.7725 18.1768C52.183 17.6588 51.5719 17.257 50.9374 17.0114L50.2154 18.8766C50.5729 19.015 50.9858 19.2692 51.4523 19.6792L52.7725 18.1768ZM50.9631 17.0218C50.3156 16.7503 49.5856 16.632 48.8004 16.632V18.632C49.3911 18.632 49.8451 18.7217 50.1896 18.8662L50.9631 17.0218ZM48.8004 16.632C47.6715 16.632 46.6275 16.8834 45.6941 17.4084L46.6746 19.1516C47.2773 18.8126 47.9772 18.632 48.8004 18.632V16.632ZM45.7003 17.405C44.7926 17.9071 44.0694 18.61 43.546 19.5018L45.2708 20.5142C45.6114 19.934 46.0722 19.4849 46.6684 19.155L45.7003 17.405ZM43.546 19.5018C43.0161 20.4046 42.7604 21.4141 42.7604 22.504H44.7604C44.7604 21.7379 44.9367 21.0834 45.2708 20.5142L43.546 19.5018ZM56.5529 11.8L57.332 11.1731L55.5529 8.96212V11.8H56.5529ZM56.5529 28V29H57.5529V28H56.5529ZM55.8569 28H54.8569V29H55.8569V28ZM55.8569 9.736L56.6356 9.10854L54.8569 6.90134V9.736H55.8569ZM69.1049 26.176L68.3263 26.8035L70.1049 29.0107V26.176H69.1049ZM69.1049 10V9H68.1049V10H69.1049ZM69.8009 10H70.8009V9H69.8009V10ZM69.8009 28.264L69.0218 28.8909L70.8009 31.1019V28.264H69.8009ZM55.5529 11.8V28H57.5529V11.8H55.5529ZM56.5529 27H55.8569V29H56.5529V27ZM56.8569 28V9.736H54.8569V28H56.8569ZM55.0783 10.3635L68.3263 26.8035L69.8836 25.5485L56.6356 9.10854L55.0783 10.3635ZM70.1049 26.176V10H68.1049V26.176H70.1049ZM69.1049 11H69.8009V9H69.1049V11ZM68.8009 10V28.264H70.8009V10H68.8009ZM70.58 27.6371L57.332 11.1731L55.7738 12.4269L69.0218 28.8909L70.58 27.6371ZM75.4471 27.496L74.9442 28.3603L75.4471 27.496ZM73.3591 25.432L72.4948 25.9349L72.4988 25.9418L73.3591 25.432ZM73.3591 19.792L74.2194 20.3018L74.2235 20.2949L73.3591 19.792ZM75.4471 17.704L74.9442 16.8397L75.4471 17.704ZM81.2551 17.776L80.7384 18.6323L80.7494 18.6387L81.2551 17.776ZM83.1991 19.912L82.2765 20.2978L84.1991 19.912H83.1991ZM83.1991 17.2V16.2H82.1991V17.2H83.1991ZM83.9671 17.2H84.9671V16.2H83.9671V17.2ZM83.9671 28V29H84.9671V28H83.9671ZM83.1991 28H82.1991V29H83.1991V28ZM83.1991 25.312H84.1991L82.2984 24.8777L83.1991 25.312ZM81.1831 27.472L81.6908 28.3336L81.6954 28.3308L81.1831 27.472ZM80.7991 26.92L81.3109 27.7791L81.3176 27.7751L81.3242 27.771L80.7991 26.92ZM82.5751 25.096L81.7113 24.5921L81.708 24.5979L82.5751 25.096ZM82.5751 20.128L81.7113 20.6319V20.6319L82.5751 20.128ZM80.7751 18.304L80.25 19.155L80.2566 19.1591L80.2633 19.1631L80.7751 18.304ZM75.8551 18.304L75.338 17.448L75.33 17.453L75.8551 18.304ZM74.0311 20.152L73.1752 19.6349L73.1712 19.6415L73.1673 19.6481L74.0311 20.152ZM74.0311 25.096L73.1673 25.5999L73.1736 25.6106L73.1801 25.6211L74.0311 25.096ZM75.8791 26.92L75.362 27.7759L75.3686 27.7799L75.3753 27.7838L75.8791 26.92ZM78.3031 27.264C77.4547 27.264 76.6764 27.0543 75.95 26.6317L74.9442 28.3603C75.9779 28.9617 77.1035 29.264 78.3031 29.264V27.264ZM75.95 26.6317C75.2153 26.2042 74.6432 25.6374 74.2194 24.9222L72.4988 25.9418C73.099 26.9546 73.9189 27.7638 74.9442 28.3603L75.95 26.6317ZM74.2235 24.9291C73.7994 24.2002 73.5911 23.4295 73.5911 22.6H71.5911C71.5911 23.7865 71.8949 24.9038 72.4948 25.9349L74.2235 24.9291ZM73.5911 22.6C73.5911 21.7707 73.7992 21.0109 74.2194 20.3018L72.4988 19.2822C71.895 20.3011 71.5911 21.4133 71.5911 22.6H73.5911ZM74.2235 20.2949C74.6483 19.5647 75.2198 18.9932 75.95 18.5683L74.9442 16.8397C73.9145 17.4388 73.0939 18.2593 72.4948 19.2891L74.2235 20.2949ZM75.95 18.5683C76.6764 18.1457 77.4547 17.936 78.3031 17.936V15.936C77.1035 15.936 75.9779 16.2383 74.9442 16.8397L75.95 18.5683ZM78.3031 17.936C79.1531 17.936 79.9595 18.1621 80.7385 18.6322L81.7718 16.9198C80.6948 16.2699 79.5331 15.936 78.3031 15.936V17.936ZM80.7494 18.6387C81.5155 19.0878 82.0027 19.643 82.2765 20.2978L84.1217 19.5262C83.6596 18.421 82.8508 17.5522 81.7608 16.9133L80.7494 18.6387ZM84.1991 19.912V17.2H82.1991V19.912H84.1991ZM83.1991 18.2H83.9671V16.2H83.1991V18.2ZM82.9671 17.2V28H84.9671V17.2H82.9671ZM83.9671 27H83.1991V29H83.9671V27ZM84.1991 28V25.312H82.1991V28H84.1991ZM82.2984 24.8777C81.9573 25.5851 81.4265 26.1624 80.6708 26.6132L81.6954 28.3308C82.7638 27.6936 83.577 26.8309 84.0999 25.7463L82.2984 24.8777ZM80.6754 26.6105C79.9307 27.0493 79.1457 27.264 78.3031 27.264V29.264C79.5086 29.264 80.6435 28.9507 81.6908 28.3335L80.6754 26.6105ZM78.3511 28.592C79.4103 28.592 80.4033 28.3198 81.3109 27.7791L80.2873 26.0609C79.691 26.4162 79.052 26.592 78.3511 26.592V28.592ZM81.3242 27.771C82.215 27.2214 82.9257 26.4932 83.4422 25.5941L81.708 24.5979C81.3605 25.2028 80.8872 25.6906 80.274 26.069L81.3242 27.771ZM83.4389 25.5999C83.9768 24.6777 84.2471 23.6716 84.2471 22.6H82.2471C82.2471 23.3204 82.0694 23.9783 81.7113 24.5921L83.4389 25.5999ZM84.2471 22.6C84.2471 21.541 83.9751 20.5434 83.4389 19.6241L81.7113 20.6319C82.0711 21.2486 82.2471 21.899 82.2471 22.6H84.2471ZM83.4389 19.6241C82.907 18.7122 82.1868 17.981 81.2869 17.4449L80.2633 19.1631C80.8674 19.523 81.3473 20.0078 81.7113 20.6319L83.4389 19.6241ZM81.3002 17.453C80.3911 16.892 79.3934 16.608 78.3271 16.608V18.608C79.0209 18.608 79.6552 18.788 80.25 19.155L81.3002 17.453ZM78.3271 16.608C77.2611 16.608 76.2588 16.8918 75.338 17.4481L76.3722 19.1599C76.9874 18.7882 77.6331 18.608 78.3271 18.608V16.608ZM75.33 17.453C74.4406 18.0017 73.7201 18.7331 73.1752 19.6349L74.887 20.6691C75.2702 20.0349 75.7656 19.5343 76.3802 19.155L75.33 17.453ZM73.1673 19.6481C72.6311 20.5674 72.3591 21.565 72.3591 22.624H74.3591C74.3591 21.923 74.5351 21.2726 74.8949 20.6559L73.1673 19.6481ZM72.3591 22.624C72.3591 23.683 72.6311 24.6806 73.1673 25.5999L74.8949 24.5921C74.5351 23.9754 74.3591 23.325 74.3591 22.624H72.3591ZM73.1801 25.6211C73.7289 26.5105 74.4602 27.2311 75.362 27.7759L76.3962 26.0641C75.7621 25.6809 75.2614 25.1855 74.8822 24.5709L73.1801 25.6211ZM75.3753 27.7838C76.2945 28.32 77.2922 28.592 78.3511 28.592V26.592C77.6501 26.592 76.9997 26.416 76.383 26.0562L75.3753 27.7838ZM86.9964 17.2V16.2H85.9964V17.2H86.9964ZM87.7644 17.2H88.7644V16.2H87.7644V17.2ZM87.7644 19.6H86.7644L88.6797 20.0027L87.7644 19.6ZM89.5644 17.68L90.057 18.5503L90.0631 18.5468L90.0693 18.5432L89.5644 17.68ZM95.5164 18.208L94.7752 18.8793L94.7818 18.8866L94.7886 18.8938L95.5164 18.208ZM96.6924 28V29H97.6924V28H96.6924ZM95.9244 28H94.9244V29H95.9244V28ZM94.9644 18.688L94.2086 19.343L94.217 19.3524L94.9644 18.688ZM90.0204 18.184L90.492 19.0658L90.4992 19.0619L90.0204 18.184ZM88.3644 19.72L87.5199 19.1845L87.5152 19.1919L87.5106 19.1994L88.3644 19.72ZM87.7644 28V29H88.7644V28H87.7644ZM86.9964 28H85.9964V29H86.9964V28ZM86.9964 18.2H87.7644V16.2H86.9964V18.2ZM86.7644 17.2V19.6H88.7644V17.2H86.7644ZM88.6797 20.0027C88.9349 19.4226 89.3739 18.9369 90.057 18.5503L89.0718 16.8097C88.0588 17.3831 87.2978 18.1774 86.8491 19.1973L88.6797 20.0027ZM90.0693 18.5432C90.7575 18.1407 91.518 17.936 92.3724 17.936V15.936C91.1788 15.936 90.0673 16.2273 89.0595 16.8168L90.0693 18.5432ZM92.3724 17.936C93.4679 17.936 94.2278 18.2749 94.7752 18.8793L96.2576 17.5367C95.2689 16.4451 93.9329 15.936 92.3724 15.936V17.936ZM94.7886 18.8938C95.3482 19.4877 95.6924 20.3802 95.6924 21.712H97.6924C97.6924 20.0358 97.2525 18.5923 96.2442 17.5222L94.7886 18.8938ZM95.6924 21.712V28H97.6924V21.712H95.6924ZM96.6924 27H95.9244V29H96.6924V27ZM96.9244 28V21.712H94.9244V28H96.9244ZM96.9244 21.712C96.9244 20.2567 96.5636 18.9819 95.7118 18.0236L94.217 19.3524C94.6452 19.8341 94.9244 20.5753 94.9244 21.712H96.9244ZM95.7201 18.0331C94.8694 17.0515 93.6892 16.608 92.3244 16.608V18.608C93.2316 18.608 93.8114 18.8845 94.2087 19.3429L95.7201 18.0331ZM92.3244 16.608C91.3316 16.608 90.398 16.8389 89.5415 17.3061L90.4992 19.0619C91.0507 18.7611 91.6532 18.608 92.3244 18.608V16.608ZM89.5487 17.3022C88.7094 17.7512 88.0286 18.3821 87.5199 19.1845L89.2089 20.2555C89.5321 19.7459 89.9554 19.3528 90.492 19.0658L89.5487 17.3022ZM87.5106 19.1994C87.0071 20.0252 86.7644 20.9521 86.7644 21.952H88.7644C88.7644 21.2879 88.9217 20.7268 89.2182 20.2406L87.5106 19.1994ZM86.7644 21.952V28H88.7644V21.952H86.7644ZM87.7644 27H86.9964V29H87.7644V27ZM87.9964 28V17.2H85.9964V28H87.9964ZM103.587 28.144V29.144H104.587V28.144H103.587ZM100.635 27.064L99.951 27.7936L99.9585 27.8005L100.635 27.064ZM99.4829 12.856V11.856H98.4829V12.856H99.4829ZM100.251 12.856H101.251V11.856H100.251V12.856ZM100.251 17.2H99.2509V18.2H100.251V17.2ZM103.563 17.2H104.563V16.2H103.563V17.2ZM103.563 17.872V18.872H104.563V17.872H103.563ZM100.251 17.872V16.872H99.2509V17.872H100.251ZM101.187 26.584L100.489 27.3002L100.498 27.3093L100.508 27.3181L101.187 26.584ZM103.587 27.472H104.587V26.472H103.587V27.472ZM103.587 27.144C102.623 27.144 101.89 26.8585 101.311 26.3275L99.9585 27.8005C100.948 28.7095 102.183 29.144 103.587 29.144V27.144ZM101.319 26.3345C100.792 25.841 100.483 25.1356 100.483 24.088H98.4829C98.4829 25.5684 98.9414 26.847 99.951 27.7935L101.319 26.3345ZM100.483 24.088V12.856H98.4829V24.088H100.483ZM99.4829 13.856H100.251V11.856H99.4829V13.856ZM99.2509 12.856V17.2H101.251V12.856H99.2509ZM100.251 18.2H103.563V16.2H100.251V18.2ZM102.563 17.2V17.872H104.563V17.2H102.563ZM103.563 16.872H100.251V18.872H103.563V16.872ZM99.2509 17.872V24.088H101.251V17.872H99.2509ZM99.2509 24.088C99.2509 25.3524 99.632 26.4651 100.489 27.3002L101.885 25.8678C101.494 25.4869 101.251 24.9356 101.251 24.088H99.2509ZM100.508 27.3181C101.352 28.0989 102.403 28.472 103.587 28.472V26.472C102.851 26.472 102.302 26.2531 101.866 25.8499L100.508 27.3181ZM102.587 27.472V28.144H104.587V27.472H102.587ZM113.238 26.968L112.74 26.1009L113.238 26.968ZM115.11 25.192H116.11V21.8597L114.275 24.6414L115.11 25.192ZM115.11 26.416L115.852 27.086L116.11 26.8005V26.416H115.11ZM113.166 27.856L113.544 28.7815L113.553 28.7779L113.562 28.7741L113.166 27.856ZM107.958 27.496L107.436 28.3493L107.443 28.3535L107.958 27.496ZM105.87 25.384L105.005 25.8869L105.012 25.8985L105.87 25.384ZM105.87 19.696L106.726 20.2129L106.73 20.2058L105.87 19.696ZM107.958 17.68L107.486 16.7985L107.479 16.8021L107.958 17.68ZM115.182 18.928L115.884 19.6396L116.56 18.9724L115.929 18.2631L115.182 18.928ZM107.646 26.368L106.943 25.6564L106.152 26.4377L107.013 27.142L107.646 26.368ZM109.182 27.328L108.795 28.2502L108.808 28.2556L108.821 28.2606L109.182 27.328ZM107.19 25.912L106.458 26.5939L107.162 27.3489L107.894 26.6215L107.19 25.912ZM114.222 18.928L114.926 19.6375L115.686 18.8833L114.882 18.1768L114.222 18.928ZM112.686 17.944L112.299 18.8662L112.312 18.8716L112.325 18.8766L112.686 17.944ZM108.294 18.28L108.778 19.1551L108.784 19.1516L108.294 18.28ZM110.862 28.616C111.876 28.616 112.839 28.3503 113.736 27.8351L112.74 26.1009C112.133 26.4497 111.511 26.616 110.862 26.616V28.616ZM113.736 27.8351C114.629 27.3223 115.366 26.6197 115.945 25.7426L114.275 24.6414C113.862 25.2683 113.351 25.7497 112.74 26.1009L113.736 27.8351ZM114.11 25.192V26.416H116.11V25.192H114.11ZM114.367 25.746C113.857 26.3116 113.323 26.6989 112.769 26.9379L113.562 28.7741C114.417 28.4051 115.179 27.8324 115.852 27.086L114.367 25.746ZM112.787 26.9305C112.223 27.1614 111.555 27.288 110.766 27.288V29.288C111.769 29.288 112.701 29.1266 113.544 28.7815L112.787 26.9305ZM110.766 27.288C109.961 27.288 109.202 27.0766 108.472 26.6385L107.443 28.3535C108.473 28.9714 109.586 29.288 110.766 29.288V27.288ZM108.479 26.6427C107.755 26.2001 107.173 25.6131 106.727 24.8695L105.012 25.8985C105.622 26.9149 106.433 27.7359 107.436 28.3493L108.479 26.6427ZM106.734 24.8811C106.308 24.1496 106.102 23.3865 106.102 22.576H104.102C104.102 23.7495 104.407 24.8584 105.005 25.8869L106.734 24.8811ZM106.102 22.576C106.102 21.6707 106.316 20.8921 106.726 20.2129L105.014 19.1791C104.4 20.1959 104.102 21.3373 104.102 22.576H106.102ZM106.73 20.2058C107.151 19.4963 107.715 18.9516 108.437 18.5579L107.479 16.8021C106.441 17.3684 105.613 18.1677 105.009 19.1862L106.73 20.2058ZM108.43 18.5615C109.171 18.1647 109.999 17.96 110.934 17.96V15.96C109.693 15.96 108.537 16.2353 107.486 16.7985L108.43 18.5615ZM110.934 17.96C112.295 17.96 113.445 18.4806 114.435 19.5929L115.929 18.2631C114.583 16.7514 112.901 15.96 110.934 15.96V17.96ZM114.479 18.2164L106.943 25.6564L108.348 27.0796L115.884 19.6396L114.479 18.2164ZM107.013 27.142C107.596 27.6195 108.19 27.9965 108.795 28.2502L109.568 26.4058C109.181 26.2435 108.751 25.9805 108.279 25.594L107.013 27.142ZM108.821 28.2606C109.45 28.5041 110.135 28.616 110.862 28.616V26.616C110.34 26.616 109.906 26.5359 109.543 26.3954L108.821 28.2606ZM104.87 22.504C104.87 24.077 105.4 25.4589 106.458 26.5939L107.921 25.2301C107.219 24.4771 106.87 23.587 106.87 22.504H104.87ZM107.894 26.6215L114.926 19.6375L113.517 18.2185L106.485 25.2025L107.894 26.6215ZM114.882 18.1768C114.292 17.6588 113.681 17.257 113.047 17.0114L112.325 18.8766C112.682 19.015 113.095 19.2692 113.562 19.6792L114.882 18.1768ZM113.072 17.0218C112.425 16.7503 111.695 16.632 110.91 16.632V18.632C111.501 18.632 111.954 18.7217 112.299 18.8662L113.072 17.0218ZM110.91 16.632C109.781 16.632 108.737 16.8834 107.803 17.4084L108.784 19.1516C109.387 18.8126 110.087 18.632 110.91 18.632V16.632ZM107.81 17.405C106.902 17.9071 106.179 18.61 105.655 19.5018L107.38 20.5142C107.721 19.934 108.182 19.4849 108.778 19.155L107.81 17.405ZM105.655 19.5018C105.125 20.4046 104.87 21.4141 104.87 22.504H106.87C106.87 21.7379 107.046 21.0834 107.38 20.5142L105.655 19.5018ZM118.158 27.88L117.741 28.7887L117.751 28.7934L117.761 28.7979L118.158 27.88ZM116.886 26.848H115.886V27.131L116.035 27.3721L116.886 26.848ZM116.886 25.576L117.801 25.1718L115.886 25.576H116.886ZM118.134 27.112L117.597 27.9557L117.607 27.9615L117.616 27.9672L118.134 27.112ZM122.046 26.872L122.753 27.5791L122.759 27.5733L122.765 27.5674L122.046 26.872ZM122.358 23.464L121.554 24.0584L121.56 24.067L121.567 24.0754L122.358 23.464ZM121.038 22.36L121.556 21.5045L121.548 21.4995L121.539 21.4946L121.038 22.36ZM120.126 21.832L119.606 22.6858L119.615 22.6917L119.625 22.6974L120.126 21.832ZM118.638 20.896L118.038 21.696L118.061 21.7127L118.084 21.7281L118.638 20.896ZM117.87 20.104L117.025 20.638L117.031 20.6484L117.038 20.6587L117.87 20.104ZM118.254 17.512L118.905 18.2713L118.254 17.512ZM122.214 17.536H123.214V17.0048L122.774 16.7074L122.214 17.536ZM122.214 18.592L121.417 19.1951L123.214 21.5727V18.592H122.214ZM118.83 17.992L118.206 17.2111V17.2111L118.83 17.992ZM118.638 19.912L117.821 20.4887L117.83 20.5005L117.838 20.512L118.638 19.912ZM119.43 20.632L118.876 21.4641L118.884 21.4699L118.893 21.4757L119.43 20.632ZM121.158 21.64L121.653 20.7707L121.647 20.7675L121.158 21.64ZM122.958 23.08L122.168 23.6922L122.172 23.6985L122.177 23.7047L122.958 23.08ZM122.55 27.376L123.229 28.1101L123.23 28.1094L122.55 27.376ZM120.198 27.264C119.541 27.264 119 27.1546 118.555 26.9621L117.761 28.7979C118.5 29.1174 119.319 29.264 120.198 29.264V27.264ZM118.576 26.9713C118.105 26.7548 117.861 26.5239 117.738 26.3239L116.035 27.3721C116.424 28.0041 117.028 28.4612 117.741 28.7887L118.576 26.9713ZM117.886 26.848V25.576H115.886V26.848H117.886ZM115.972 25.9802C116.339 26.8118 116.872 27.4939 117.597 27.9557L118.671 26.2683C118.341 26.0581 118.042 25.7162 117.801 25.1718L115.972 25.9802ZM117.616 27.9672C118.343 28.4078 119.209 28.592 120.15 28.592V26.592C119.46 26.592 118.982 26.4562 118.653 26.2568L117.616 27.9672ZM120.15 28.592C121.155 28.592 122.057 28.2759 122.753 27.5791L121.339 26.1649C121.076 26.4281 120.714 26.592 120.15 26.592V28.592ZM122.765 27.5674C123.446 26.8632 123.766 25.9717 123.766 24.976H121.766C121.766 25.5163 121.606 25.8888 121.328 26.1766L122.765 27.5674ZM123.766 24.976C123.766 24.1996 123.608 23.4455 123.15 22.8526L121.567 24.0754C121.653 24.1865 121.766 24.4404 121.766 24.976H123.766ZM123.162 22.8696C122.782 22.3551 122.221 21.9067 121.556 21.5045L120.521 23.2155C121.072 23.5493 121.39 23.8369 121.554 24.0584L123.162 22.8696ZM121.539 21.4946L120.627 20.9666L119.625 22.6974L120.537 23.2254L121.539 21.4946ZM120.647 20.9782C119.994 20.5802 119.512 20.2765 119.193 20.0639L118.084 21.7281C118.437 21.9635 118.946 22.2838 119.606 22.6858L120.647 20.9782ZM119.238 20.096C118.995 19.9136 118.823 19.7296 118.702 19.5493L117.038 20.6587C117.302 21.0544 117.641 21.3984 118.038 21.696L119.238 20.096ZM118.716 19.57C118.636 19.4434 118.582 19.2809 118.582 19.048H116.582C116.582 19.6151 116.721 20.1566 117.025 20.638L118.716 19.57ZM118.582 19.048C118.582 18.672 118.699 18.4478 118.905 18.2713L117.604 16.7527C116.913 17.3442 116.582 18.144 116.582 19.048H118.582ZM118.905 18.2713C119.134 18.0749 119.47 17.936 120.006 17.936V15.936C119.102 15.936 118.27 16.1811 117.604 16.7527L118.905 18.2713ZM120.006 17.936C120.733 17.936 121.263 18.0998 121.654 18.3646L122.774 16.7074C121.982 16.1722 121.039 15.936 120.006 15.936V17.936ZM121.214 17.536V18.592H123.214V17.536H121.214ZM123.012 17.9889C122.301 17.0483 121.274 16.608 120.078 16.608V18.608C120.739 18.608 121.136 18.8237 121.417 19.1951L123.012 17.9889ZM120.078 16.608C119.397 16.608 118.743 16.7809 118.206 17.2111L119.455 18.7729C119.557 18.6911 119.735 18.608 120.078 18.608V16.608ZM118.206 17.2111C117.655 17.6515 117.35 18.2637 117.35 18.976H119.35C119.35 18.8883 119.365 18.8445 119.455 18.7729L118.206 17.2111ZM117.35 18.976C117.35 19.522 117.503 20.038 117.821 20.4887L119.455 19.3353C119.389 19.242 119.35 19.134 119.35 18.976H117.35ZM117.838 20.512C118.114 20.8789 118.469 21.1929 118.876 21.4641L119.985 19.7999C119.72 19.6231 119.547 19.4571 119.438 19.312L117.838 20.512ZM118.893 21.4757C119.271 21.7159 119.868 22.0635 120.67 22.5125L121.647 20.7675C120.849 20.3205 120.294 19.9961 119.967 19.7883L118.893 21.4757ZM120.664 22.5093C121.417 22.9374 121.894 23.3391 122.168 23.6922L123.749 22.4678C123.254 21.8289 122.532 21.2706 121.653 20.7707L120.664 22.5093ZM122.177 23.7047C122.384 23.9634 122.534 24.3555 122.534 24.976H124.534C124.534 24.0285 124.3 23.1566 123.739 22.4553L122.177 23.7047ZM122.534 24.976C122.534 25.7233 122.299 26.2456 121.871 26.6426L123.23 28.1094C124.114 27.2904 124.534 26.2127 124.534 24.976H122.534ZM121.871 26.6419C121.429 27.0513 120.892 27.264 120.198 27.264V29.264C121.36 29.264 122.392 28.8847 123.229 28.1101L121.871 26.6419ZM135.831 11.44L136.357 12.2909L136.36 12.2892L135.831 11.44ZM132.736 14.68L131.865 14.1883L131.863 14.1917L132.736 14.68ZM132.76 23.392L131.891 23.8881L132.76 23.392ZM135.807 26.608L135.273 27.453L135.279 27.4569L135.285 27.4608L135.807 26.608ZM142.24 27.544L142.013 26.57L142.008 26.5712L142.24 27.544ZM144.208 26.776L144.699 27.647L145.208 27.36V26.776H144.208ZM144.208 21.136H145.208V20.136H144.208V21.136ZM138.255 21.136H137.255V22.136H138.255V21.136ZM138.255 20.44V19.44H137.255V20.44H138.255ZM144.999 20.44H145.999V19.44H144.999V20.44ZM144.999 26.272H143.999V27.89L145.447 27.1664L144.999 26.272ZM145.048 26.248H146.048V24.63L144.6 25.3536L145.048 26.248ZM145.048 27.136L145.565 27.9919L146.048 27.7002V27.136H145.048ZM142.671 28.144L142.424 27.175L142.413 27.1779L142.402 27.181L142.671 28.144ZM135.4 27.256L134.891 28.117L134.898 28.1212L135.4 27.256ZM132.04 23.848L131.167 24.3369L131.174 24.3483L132.04 23.848ZM132.087 14.176L131.23 13.6615L131.226 13.6686L132.087 14.176ZM135.52 10.768L135.019 9.90212L135.015 9.90457L135.52 10.768ZM142.768 9.832L142.465 10.7852L142.476 10.7886L142.487 10.7917L142.768 9.832ZM145.048 10.864H146.048V10.285L145.545 9.99675L145.048 10.864ZM145.048 11.752L144.482 12.5765L146.048 13.6511V11.752H145.048ZM142.768 10.576L142.438 11.5202L142.451 11.5247L142.464 11.5289L142.768 10.576ZM140.176 9.216C138.41 9.216 136.778 9.67366 135.303 10.5908L136.36 12.2892C137.509 11.5743 138.773 11.216 140.176 11.216V9.216ZM135.306 10.5891C133.863 11.4801 132.714 12.6852 131.865 14.1883L133.606 15.1717C134.293 13.9548 135.208 12.9999 136.357 12.2909L135.306 10.5891ZM131.863 14.1917C131.027 15.6861 130.607 17.3024 130.607 19.024H132.607C132.607 17.6416 132.94 16.3619 133.608 15.1683L131.863 14.1917ZM130.607 19.024C130.607 20.7637 131.036 22.391 131.891 23.8881L133.628 22.8959C132.947 21.705 132.607 20.4203 132.607 19.024H130.607ZM131.891 23.8881C132.737 25.3688 133.866 26.5626 135.273 27.453L136.342 25.763C135.221 25.0534 134.318 24.1032 133.628 22.8959L131.891 23.8881ZM135.285 27.4608C136.719 28.339 138.275 28.784 139.936 28.784V26.784C138.652 26.784 137.456 26.445 136.33 25.7552L135.285 27.4608ZM139.936 28.784C140.859 28.784 141.707 28.6987 142.471 28.5168L142.008 26.5712C141.428 26.7093 140.74 26.784 139.936 26.784V28.784ZM142.466 28.518C143.248 28.3361 143.993 28.0451 144.699 27.647L143.716 25.905C143.174 26.2109 142.607 26.4319 142.013 26.57L142.466 28.518ZM145.208 26.776V21.136H143.208V26.776H145.208ZM144.208 20.136H138.255V22.136H144.208V20.136ZM139.255 21.136V20.44H137.255V21.136H139.255ZM138.255 21.44H144.999V19.44H138.255V21.44ZM143.999 20.44V26.272H145.999V20.44H143.999ZM145.447 27.1664L145.495 27.1424L144.6 25.3536L144.552 25.3776L145.447 27.1664ZM144.048 26.248V27.136H146.048V26.248H144.048ZM144.53 26.2801C143.841 26.6967 143.139 26.9928 142.424 27.175L142.919 29.113C143.836 28.8792 144.718 28.5033 145.565 27.9919L144.53 26.2801ZM142.402 27.181C141.702 27.377 140.914 27.48 140.031 27.48V29.48C141.069 29.48 142.041 29.359 142.941 29.107L142.402 27.181ZM140.031 27.48C138.522 27.48 137.151 27.1156 135.901 26.3908L134.898 28.1212C136.464 29.0284 138.181 29.48 140.031 29.48V27.48ZM135.908 26.3951C134.651 25.6521 133.653 24.6414 132.905 23.3477L131.174 24.3483C132.09 25.9346 133.332 27.1959 134.891 28.1169L135.908 26.3951ZM132.912 23.3591C132.186 22.0647 131.816 20.6035 131.816 18.952H129.815C129.815 20.9165 130.261 22.7193 131.167 24.3369L132.912 23.3591ZM131.816 18.952C131.816 17.3783 132.196 15.9628 132.949 14.6834L131.226 13.6686C130.283 15.2692 129.815 17.0377 129.815 18.952H131.816ZM132.945 14.6905C133.724 13.3919 134.748 12.377 136.024 11.6314L135.015 9.90457C133.443 10.823 132.179 12.0801 131.23 13.6615L132.945 14.6905ZM136.02 11.6339C137.312 10.8871 138.668 10.52 140.104 10.52V8.52C138.307 8.52 136.607 8.98494 135.019 9.90213L136.02 11.6339ZM140.104 10.52C141.177 10.52 141.949 10.6215 142.465 10.7852L143.07 8.87877C142.274 8.62651 141.27 8.52 140.104 8.52V10.52ZM142.487 10.7917C143.041 10.954 143.726 11.2584 144.55 11.7313L145.545 9.99675C144.641 9.47762 143.806 9.09398 143.048 8.87226L142.487 10.7917ZM144.048 10.864V11.752H146.048V10.864H144.048ZM145.613 10.9275C144.742 10.3296 143.894 9.88491 143.071 9.62307L142.464 11.5289C143.049 11.7151 143.721 12.0544 144.482 12.5765L145.613 10.9275ZM143.097 9.6318C142.268 9.34275 141.284 9.216 140.176 9.216V11.216C141.147 11.216 141.891 11.3292 142.438 11.5202L143.097 9.6318ZM150.094 27.592L149.569 28.4427L149.58 28.4495L150.094 27.592ZM148.03 25.456L147.156 25.9403L147.159 25.947L148.03 25.456ZM148.03 19.696L147.166 19.1931L147.159 19.205L148.03 19.696ZM150.094 17.608L150.604 18.4683L150.609 18.4655L150.094 17.608ZM155.902 17.608L155.381 18.4613L155.39 18.4669L155.4 18.4723L155.902 17.608ZM157.99 25.504L158.868 25.9829L158.872 25.9762L157.99 25.504ZM155.974 27.616L156.491 28.4721L156.496 28.4693L155.974 27.616ZM155.542 27.016L155.017 26.165L155.542 27.016ZM157.294 25.168L156.419 24.6854L156.415 24.6917L157.294 25.168ZM157.294 20.056L158.17 19.5734L157.294 20.056ZM155.518 18.184L154.993 19.035L155.518 18.184ZM150.502 18.208L151.028 19.059L151.032 19.056L150.502 18.208ZM148.702 20.08L147.834 19.5839L147.83 19.5906L147.827 19.5974L148.702 20.08ZM148.702 25.168L147.827 25.6506L147.833 25.6613L147.839 25.6719L148.702 25.168ZM150.502 27.016L149.977 27.8671L149.985 27.8719L150.502 27.016ZM153.046 27.384C152.128 27.384 151.324 27.1636 150.609 26.7345L149.58 28.4495C150.625 29.0764 151.789 29.384 153.046 29.384V27.384ZM150.62 26.7414C149.88 26.284 149.313 25.6942 148.902 24.965L147.159 25.947C147.74 26.9778 148.549 27.812 149.569 28.4426L150.62 26.7414ZM148.905 24.9717C148.493 24.2263 148.286 23.4253 148.286 22.552H146.286C146.286 23.7587 146.576 24.8937 147.156 25.9403L148.905 24.9717ZM148.286 22.552C148.286 21.6976 148.491 20.915 148.902 20.187L147.159 19.205C146.578 20.237 146.286 21.3584 146.286 22.552H148.286ZM148.895 20.1989C149.322 19.4642 149.889 18.8921 150.604 18.4683L149.585 16.7477C148.572 17.3479 147.763 18.1678 147.166 19.1931L148.895 20.1989ZM150.609 18.4655C151.326 18.035 152.123 17.816 153.022 17.816V15.816C151.778 15.816 150.622 16.125 149.58 16.7505L150.609 18.4655ZM153.022 17.816C153.903 17.816 154.681 18.0335 155.381 18.4613L156.424 16.7547C155.396 16.1265 154.254 15.816 153.022 15.816V17.816ZM155.4 18.4723C156.127 18.8956 156.687 19.4633 157.095 20.187L158.838 19.205C158.254 18.1687 157.438 17.3444 156.405 16.7437L155.4 18.4723ZM157.095 20.187C157.506 20.915 157.71 21.6976 157.71 22.552H159.71C159.71 21.3584 159.419 20.237 158.838 19.205L157.095 20.187ZM157.71 22.552C157.71 23.4685 157.507 24.289 157.109 25.0318L158.872 25.9762C159.434 24.927 159.71 23.7795 159.71 22.552H157.71ZM157.113 25.0251C156.717 25.7496 156.169 26.3252 155.453 26.7627L156.496 28.4693C157.508 27.8508 158.303 27.0184 158.868 25.9829L157.113 25.0251ZM155.458 26.7599C154.783 27.1673 153.99 27.384 153.046 27.384V29.384C154.311 29.384 155.47 29.0887 156.491 28.4721L155.458 26.7599ZM153.046 28.712C154.138 28.712 155.152 28.4317 156.068 27.867L155.017 26.165C154.428 26.5283 153.779 26.712 153.046 26.712V28.712ZM156.068 27.867C156.967 27.3124 157.673 26.5679 158.174 25.6443L156.415 24.6917C156.083 25.3041 155.622 25.7916 155.017 26.165L156.068 27.867ZM158.17 25.6506C158.687 24.7133 158.942 23.6903 158.942 22.6H156.942C156.942 23.3657 156.766 24.0547 156.419 24.6854L158.17 25.6506ZM158.942 22.6C158.942 21.5226 158.685 20.5081 158.17 19.5734L156.419 20.5386C156.768 21.1719 156.942 21.8534 156.942 22.6H158.942ZM158.17 19.5734C157.656 18.6405 156.944 17.8887 156.044 17.333L154.993 19.035C155.597 19.4073 156.069 19.9035 156.419 20.5386L158.17 19.5734ZM156.044 17.333C155.128 16.7683 154.114 16.488 153.022 16.488V18.488C153.755 18.488 154.404 18.6717 154.993 19.035L156.044 17.333ZM153.022 16.488C151.924 16.488 150.901 16.7799 149.972 17.36L151.032 19.056C151.64 18.6761 152.296 18.488 153.022 18.488V16.488ZM149.977 17.357C149.08 17.9107 148.363 18.6581 147.834 19.5839L149.571 20.5761C149.938 19.9339 150.421 19.4333 151.028 19.059L149.977 17.357ZM147.827 19.5974C147.312 20.5321 147.054 21.5466 147.054 22.624H149.054C149.054 21.8774 149.229 21.1959 149.578 20.5626L147.827 19.5974ZM147.054 22.624C147.054 23.7014 147.312 24.7159 147.827 25.6506L149.578 24.6854C149.229 24.0521 149.054 23.3706 149.054 22.624H147.054ZM147.839 25.6719C148.369 26.5807 149.085 27.3163 149.977 27.867L151.028 26.165C150.416 25.7877 149.932 25.2913 149.566 24.6641L147.839 25.6719ZM149.985 27.8719C150.915 28.4335 151.943 28.712 153.046 28.712V26.712C152.294 26.712 151.626 26.5265 151.02 26.1601L149.985 27.8719Z" fill="white"/>
<path d="M4.25 2.28571H2C2 6.70357 5.52617 10.2857 9.875 10.2857V15.4286C9.875 15.7429 10.1281 16 10.4375 16H11.5625C11.8719 16 12.125 15.7429 12.125 15.4286V10.2857C12.125 5.86786 8.59883 2.28571 4.25 2.28571ZM17.75 0C14.7898 0 12.2164 1.66071 10.8699 4.11429C11.8438 5.19286 12.5645 6.50357 12.9441 7.95715C16.9062 7.53929 20 4.13929 20 0H17.75Z" fill="white"/>
</svg>
