<svg width="30" height="30" viewBox="0 0 30 30" fill="none" xmlns="http://www.w3.org/2000/svg">
<path d="M0 13.125H12.8571V1.875H0V13.125ZM4.28571 5.625H8.57143V9.375H4.28571V5.625ZM17.1429 1.875V13.125H30V1.875H17.1429ZM25.7143 9.375H21.4286V5.625H25.7143V9.375ZM0 28.125H12.8571V16.875H0V28.125ZM4.28571 20.625H8.57143V24.375H4.28571V20.625ZM27.8571 16.875H30V24.375H23.5714V22.5H21.4286V28.125H17.1429V16.875H23.5714V18.75H27.8571V16.875ZM27.8571 26.25H30V28.125H27.8571V26.25ZM23.5714 26.25H25.7143V28.125H23.5714V26.25Z" fill="white"/>
</svg>
