<svg width="30" height="30" viewBox="0 0 38 43" fill="none" xmlns="http://www.w3.org/2000/svg">
<path d="M30.791 9.57633C30.4733 8.35726 29.8139 7.28816 28.9123 6.53029C28.0106 5.77242 26.9156 5.36689 25.7925 5.37487C24.4908 5.37619 23.2366 5.92844 22.2764 6.92306C21.3163 7.91768 20.7197 9.28273 20.6039 10.7499H17.3976C17.2802 9.28119 16.6816 7.91532 15.7195 6.92071C14.7573 5.9261 13.5012 5.37469 12.198 5.37487C11.0763 5.36864 9.98321 5.77503 9.08337 6.53281C8.18353 7.29059 7.52567 8.35873 7.20888 9.57633L3.23313 24.569C3.18957 24.736 3.16718 24.9091 3.16663 25.0832V26.8749C3.16914 29.2502 4.00424 31.5274 5.4887 33.2069C6.97316 34.8863 8.98574 35.8308 11.0849 35.8332C12.6234 35.8302 14.1278 35.3204 15.4145 34.3659C16.7011 33.4113 17.7143 32.0535 18.3302 30.4582H19.6697C20.2857 32.0535 21.2988 33.4113 22.5855 34.3659C23.8721 35.3204 25.3765 35.8302 26.915 35.8332C29.0145 35.8308 31.0273 34.8861 32.5118 33.2062C33.9963 31.5264 34.8312 29.2487 34.8333 26.8731V25.0832C34.8333 24.9076 34.8095 24.7356 34.7668 24.569L30.791 9.57633ZM11.0849 32.2499C9.82547 32.248 8.61809 31.6811 7.72741 30.6736C6.83672 29.666 6.33539 28.3 6.33329 26.8749C6.33329 26.7387 6.36021 26.6115 6.36813 26.4771C6.45475 25.1276 6.9887 23.865 7.86305 22.9421C8.7374 22.0191 9.88759 21.504 11.0833 21.4999C12.3431 21.4999 13.5513 22.0662 14.4421 23.0742C15.3328 24.0822 15.8333 25.4493 15.8333 26.8749V26.891C15.8279 28.3128 15.3254 29.6745 14.4357 30.6786C13.5461 31.6826 12.3414 32.2475 11.0849 32.2499ZM26.915 32.2499C25.6585 32.2475 24.4539 31.6826 23.5642 30.6786C22.6745 29.6745 22.1721 28.3128 22.1666 26.891V26.8749C22.1665 26.169 22.2893 25.4701 22.5279 24.8179C22.7665 24.1657 23.1163 23.5731 23.5573 23.0739C24.448 22.0657 25.6561 21.4992 26.9158 21.499C28.1756 21.4987 29.3839 22.0648 30.2748 23.0726C31.1658 24.0805 31.6664 25.4475 31.6666 26.8731C31.665 28.2985 31.1638 29.665 30.2731 30.673C29.3823 31.6809 28.1747 32.248 26.915 32.2499Z" fill="white"/>
</svg>
