<svg width="162" height="148" viewBox="0 0 162 148" fill="none" xmlns="http://www.w3.org/2000/svg">
<g filter="url(#filter0_d)">
<path d="M47.2639 14.3544C29.7351 25.6452 18.1084 45.3299 18.1084 67.7298C18.1084 102.749 46.5016 131.168 81.4899 131.168C116.478 131.168 144.878 102.749 144.878 67.7298C144.878 44.6127 132.496 24.3774 114.019 13.287C109.792 11.3377 90.7834 0.174145 114.019 15.3009C119.917 18.9671 125.217 23.5914 129.546 29.0023C140.28 42.1131 145.005 59.8364 142.557 76.6112C140.185 93.9586 129.847 109.877 115.267 119.407C100.936 128.984 82.4914 131.852 65.8491 127.469C48.0888 122.995 32.8564 109.93 25.2983 93.2595C17.1926 75.8373 18.1625 54.5468 27.4982 37.8098C32.1875 29.1738 39.0988 21.8581 47.2639 16.4153C70.3413 -0.1175 53.1822 10.4971 47.2639 14.3544Z" fill="#8FAE44" stroke="#8FAE44" stroke-width="2.748" stroke-linecap="round" stroke-linejoin="round"/>
<path d="M54.3312 138.762C54.3318 138.528 66.6366 132.655 68.8405 131.836C71.8822 130.706 76.8958 129.893 78.6728 130.242L79.9644 130.495L78.522 132.147C77.7287 133.056 76.4107 134.245 75.5931 134.79C73.6201 136.104 68.7928 137.676 65.0974 138.207C62.4941 138.582 54.3306 139.002 54.3312 138.762ZM103.326 138.633C97.8009 138.313 97.3805 138.24 92.2297 136.687C89.148 135.758 88.3599 135.309 85.9809 133.127L83.2586 130.63L84.4607 130.308C87.5532 129.479 97.4778 132.213 101.824 135.092C102.65 135.639 103.799 136.222 104.377 136.387C105.695 136.764 109.424 138.588 109.424 138.856C109.424 138.965 109.188 139.026 108.898 138.99C108.609 138.954 106.102 138.793 103.326 138.633ZM43.1867 131.558C40.8736 130.87 38.1582 130.082 37.1523 129.807L35.3235 129.306L38.414 128.794C40.1137 128.512 43.3387 127.923 45.5806 127.483C51.8322 126.259 58.094 126.615 62.1447 128.424L63.2275 128.908L61.8754 130.065C58.3336 133.097 50.472 133.725 43.1867 131.558ZM105.668 132.035C102.66 130.974 99.912 129.128 100.699 128.697C102.342 127.795 107.826 126.685 110.639 126.685C113.232 126.685 120.061 127.709 126.577 129.076C127.805 129.333 127.286 129.56 121.91 131.118C116.634 132.646 115.357 132.868 111.907 132.855C109.075 132.845 107.304 132.612 105.668 132.035ZM70.8833 128.709C68.2284 127.955 62.7042 121.825 61.6972 118.515L61.4067 117.56L63.2231 118.469C64.2221 118.968 66.3478 119.813 67.9469 120.347C73.2652 122.12 75.7112 124.038 77.2443 127.635L77.8938 129.159L75.0494 129.122C73.485 129.102 71.6102 128.916 70.8833 128.709ZM85.873 128.424C85.873 127.301 88.8714 123.636 90.8311 122.364C91.6959 121.803 93.6159 120.954 95.0978 120.477C96.5796 120 98.7244 119.169 99.8641 118.63L101.936 117.65L101.668 118.696C101.021 121.224 96.921 126.344 94.3689 127.81C92.9033 128.652 91.7619 128.931 89.1815 129.077C86.0698 129.254 85.873 129.215 85.873 128.424ZM59.3781 126.399C54.8329 124.81 51.6168 121.211 49.8991 115.793C49.3181 113.96 48.7255 111.66 48.5823 110.682L48.322 108.903L53.9862 114.392C59.8311 120.057 61.0231 121.752 61.3869 124.916C61.5984 126.756 61.2124 127.041 59.3781 126.399ZM101.968 125.043C102.465 121.41 104.622 118.627 112.621 111.297L115.188 108.946L114.846 111.064C113.752 117.85 110.138 123.759 105.899 125.695C104.715 126.235 103.296 126.679 102.745 126.681C101.819 126.685 101.76 126.56 101.968 125.043ZM36.0372 122.611C31.196 121.138 29.9423 120.528 25.3074 117.386C22.7411 115.646 20.699 114.182 20.7693 114.133C21.4048 113.686 36.5698 115.306 37.8983 115.963C38.2625 116.143 39.7907 116.878 41.2942 117.596C42.7977 118.314 44.7663 119.537 45.6688 120.314L47.3099 121.727L45.8004 122.345C43.2917 123.373 38.9317 123.492 36.0372 122.611ZM119.578 122.943C118.57 122.749 117.477 122.371 117.149 122.104C116.375 121.475 117.111 120.64 120.229 118.611C123.679 116.365 127.574 115.21 133.268 114.743C140.6 114.141 142.592 114.073 142.366 114.431C141.883 115.194 133.221 120.581 131.2 121.375C126.485 123.226 123.287 123.658 119.578 122.943ZM43.9278 117.489C41.2866 115.535 38.912 112.207 38.3518 109.674C38.084 108.463 37.9323 105.155 38.0069 102.152L38.14 96.7917L39.6769 99.6779C40.5222 101.265 41.7092 103.274 42.3148 104.142C45.256 108.358 46.897 114.072 46.0907 117.289L45.71 118.808L43.9278 117.489ZM117.514 114.669C117.737 110.222 118.453 108.028 120.678 104.968C121.201 104.25 122.46 102.138 123.475 100.275L125.32 96.8884L125.615 100.355C125.969 104.523 125.377 109.87 124.316 112.083C123.488 113.812 119.917 117.567 118.289 118.421L117.3 118.94L117.514 114.669ZM27.9914 109.586C26.5732 109.279 24.7766 108.704 23.999 108.31C21.4614 107.024 17.136 103.351 15.2355 100.87C14.2122 99.5341 12.8066 97.838 12.112 97.1009C10.6875 95.5893 10.7715 95.519 13.0033 96.3544C13.8754 96.6808 15.6525 97.1528 16.9523 97.4033C19.6673 97.9264 24.3698 100.034 27.0158 101.913C29.0266 103.341 32.1571 106.768 33.1218 108.597C33.6956 109.685 33.6857 109.78 32.999 109.786C32.5883 109.789 31.8737 109.871 31.4111 109.968C30.9485 110.066 29.4097 109.894 27.9914 109.586ZM131.188 109.9C130.552 109.804 130.031 109.631 130.031 109.517C130.031 108.697 132.603 105.321 134.607 103.51C137.374 101.009 143.051 98.0739 146.454 97.3855C147.714 97.1304 149.576 96.6543 150.589 96.3275C152.774 95.6234 153.246 95.8298 151.709 96.8171C151.102 97.2075 149.953 98.4747 149.157 99.6332C146.697 103.213 145.353 104.441 140.186 107.829C138.238 109.107 133.359 110.229 131.188 109.9ZM31.5114 104.423C30.4209 103.174 29.8993 102.013 29.3733 99.6663C28.9906 97.959 28.6775 95.8456 28.6775 94.9699C28.6775 92.677 30.2127 85.6954 31.1616 83.6732C31.9601 81.9714 31.9716 81.9648 32.0083 83.185C32.0288 83.8653 32.7047 87.0196 33.5103 90.1945C34.4279 93.8109 34.977 96.9786 34.9804 98.6754C34.9858 101.355 34.0517 105.41 33.328 105.848C33.1222 105.973 32.3047 105.331 31.5114 104.423ZM129.667 104.916C127.964 100.697 128.029 97.9381 130.014 90.1945C130.711 87.4731 131.285 84.7473 131.288 84.137C131.305 80.5318 133.15 84.6046 134.244 90.6613C135.294 96.4828 133.933 103.266 131.335 105.149L130.117 106.031L129.667 104.916ZM20.3251 93.2664C17.3102 92.2167 14.2908 89.8914 12.4901 87.2325C11.6779 86.0332 9.88541 82.8192 8.50672 80.0902L6 75.1285L7.98141 76.2455C9.07118 76.8598 11.0689 78.1158 12.4209 79.0367C13.7728 79.9576 15.5427 81.106 16.3539 81.5888C19.3988 83.4009 22.8532 88.6842 23.4714 92.4748C23.7836 94.3892 23.6481 94.4233 20.3251 93.2664ZM139.704 93.4798C139.704 93.1323 140.298 91.3373 141.025 89.491C142.511 85.7121 144.478 83.3316 148.066 80.9693C151.346 78.8094 156.697 75.5598 156.975 75.5583C157.418 75.5558 151.907 86.059 150.448 87.9957C148.741 90.262 145.919 92.2655 142.92 93.3403C140.307 94.2765 139.704 94.3027 139.704 93.4798ZM23.2511 88.1451C22.1193 85.1793 22.1055 81.4289 23.2133 77.9122C24.1143 75.0523 29.514 66.4691 29.4938 67.929C29.4275 72.7281 28.5871 82.3515 28.1033 83.8523C27.2777 86.4131 26.0061 88.7953 24.9781 89.7068C24.1464 90.4442 24.1191 90.4195 23.2511 88.1451ZM138.331 89.6791C137.315 88.5734 135.665 85.0619 135.119 82.8414C134.689 81.0964 133.724 67.7002 134.007 67.405C134.322 67.0766 139.392 75.3044 140.175 77.4132C141.47 80.9046 141.458 85.7534 140.146 88.4421C139.621 89.5193 139.146 90.4007 139.092 90.4007C139.038 90.4007 138.695 90.0759 138.331 89.6791ZM15.5581 74.8952C11.7126 72.4123 9.54133 68.2166 8.30409 60.8778C7.95614 58.8139 7.53583 56.7729 7.37005 56.3422C7.13881 55.7415 7.42184 55.8471 8.5861 56.7962C9.42069 57.4765 10.5661 58.3472 11.1315 58.7309C12.9014 59.9324 17.4123 66.515 18.2367 69.0996C19.1686 72.021 19.2859 76.3816 18.4325 76.3816C18.1178 76.3816 16.8243 75.7127 15.5581 74.8952ZM144.471 73.3127C144.783 69.6994 145.754 66.982 147.732 64.1903C149.211 62.1021 155.552 55.7654 156.162 55.7654C156.351 55.7654 156.319 56.2467 156.091 56.8349C155.863 57.4232 155.41 59.5106 155.085 61.4736C153.943 68.3748 151.538 72.8009 147.713 75.0389C144.307 77.0321 144.158 76.9524 144.471 73.3127ZM20.0459 71.2897C19.8548 69.7907 19.9833 68.2384 20.4469 66.4448C21.6085 61.9507 22.8973 59.9064 26.9895 56.0667C29.0744 54.1104 30.7803 52.6044 30.7803 52.72C30.7803 52.8357 30.4777 53.8929 30.1078 55.0694C28.0605 61.5817 26.7806 65.1526 26.0246 66.461C24.8633 68.471 21.0135 73.4953 20.6348 73.4953C20.4655 73.4953 20.2005 72.5028 20.0459 71.2897ZM141.066 71.5031C137.655 67.5367 135.819 63.5022 132.781 53.2914L132.474 52.2606L133.518 53.2914C134.092 53.8584 135.985 55.6796 137.725 57.3385C140.421 59.9085 141.057 60.7931 142.027 63.3172C143.236 66.467 143.809 71.016 143.193 72.5919C142.834 73.5125 142.764 73.4766 141.066 71.5031ZM17.075 57.872C13.7183 55.8652 12.3778 51.4189 12.9061 44.0445C13.086 41.5332 13.2379 38.8903 13.2436 38.1712C13.2537 36.9002 13.2939 36.9289 14.6889 39.202C15.4781 40.488 16.3859 41.8248 16.7062 42.1727C17.5711 43.1122 19.2314 47.0064 19.8375 49.517C20.3702 51.7236 20.2385 54.0415 19.4087 57.0629C18.9072 58.8888 18.824 58.9177 17.075 57.872ZM144.243 57.7239C143.902 57.1347 143.704 55.2165 143.702 52.4668C143.7 48.4107 143.785 47.9682 145.06 45.4573C145.808 43.9832 147.247 41.5268 148.257 39.9986L150.094 37.22L150.455 41.2356C151.089 48.2958 150.636 52.2308 148.816 55.4765C148.069 56.8073 145.871 58.6517 145.031 58.6517C144.893 58.6517 144.539 58.2342 144.243 57.7239ZM21.1075 55.1233C21.1075 51.6371 23.1964 47.8157 26.804 44.7024C28.3229 43.3915 35.6964 39.2724 36.524 39.2724C36.6481 39.2724 36.1529 39.9682 35.4235 40.8186C34.6941 41.669 32.9597 44.0348 31.5692 46.0758C28.7843 50.1637 26.0342 53.1401 23.3448 54.977C21.2027 56.4401 21.1075 56.4463 21.1075 55.1233ZM140.327 55.0927C137.834 53.4773 134.279 49.9919 133.371 48.2743C132.131 45.9259 130.008 42.9196 128.479 41.3461C127.713 40.5589 127.087 39.7582 127.087 39.5666C127.087 39.375 128.992 40.195 131.321 41.3888C134.64 43.0905 136.136 44.1636 138.246 46.3573C140.929 49.1459 141.531 50.3615 142.442 54.8377C142.772 56.4602 142.491 56.4942 140.327 55.0927ZM21.6603 41.2551C18.937 36.7297 19.0424 33.7886 22.2621 24.4634L23.4602 20.9932L24.8819 25.2217C26.0021 28.5536 26.3026 30.12 26.2987 32.6089C26.2932 36.0748 25.1555 39.6844 23.4589 41.6181L22.5217 42.6864L21.6603 41.2551ZM140.262 42.0979C140.01 41.7912 139.261 40.5197 138.597 39.2724C137.476 37.1634 137.393 36.687 137.418 32.4691C137.442 28.4212 137.585 27.5788 138.745 24.6349C139.531 22.6422 140.143 21.5812 140.291 21.9548C142.134 26.6029 143.893 32.8735 143.902 34.8245C143.911 36.5667 142.538 40.4539 141.45 41.7718C140.852 42.4953 140.637 42.5545 140.262 42.0979ZM25.977 39.5817C27.4254 35.1035 33.4104 30.8238 40.5239 29.1796C44.7051 28.2132 44.9996 28.363 42.5157 30.1928C41.2906 31.0953 39.6157 32.4507 38.7936 33.2048C35.2728 36.4345 28.4025 40.495 26.4413 40.5054C25.8396 40.5085 25.7408 40.312 25.977 39.5817ZM135.75 40.2131C134.253 39.8376 129.828 37.2375 127.508 35.3697C126.236 34.3457 123.833 32.4442 122.169 31.1443C120.505 29.8443 119.208 28.7176 119.287 28.6404C119.684 28.2513 124.987 29.5848 128.063 30.847C132.006 32.4655 135.24 35.1131 136.7 37.9195C138.034 40.4832 137.92 40.7574 135.75 40.2131ZM29.6008 26.7996C28.9645 23.9246 29.3379 20.4653 30.5398 18.1011C31.134 16.9323 32.8348 14.5321 34.3194 12.7672L37.0188 9.55835L37.3127 12.2495C37.9575 18.1524 36.4813 23.0611 33.0611 26.3873C31.8369 27.5779 30.6448 28.552 30.412 28.552C30.1792 28.552 29.8142 27.7634 29.6008 26.7996ZM130.763 26.7331C129.583 25.6662 128.291 23.9328 127.616 22.5112C126.591 20.3531 126.454 19.5353 126.32 14.7391L126.171 9.37889L127.786 11.1968C132.467 16.4666 133.74 18.7411 134.089 22.4601C134.322 24.9349 133.712 28.5571 133.064 28.5476C132.9 28.5452 131.864 27.7287 130.763 26.7331ZM35.8876 25.2255C39.4808 21.8921 43.0788 20.7128 49.6208 20.7241C54.245 20.7321 55.0654 21.1609 52.3569 22.1541C51.2455 22.5616 48.8221 23.6294 46.9717 24.5271C43.2851 26.3153 39.3731 27.2968 35.8876 27.3079L33.6352 27.315L35.8876 25.2255ZM122.672 26.729C121.284 26.4511 118.35 25.3827 116.153 24.3548C113.956 23.3268 111.45 22.2369 110.585 21.9328C108.319 21.1362 109.381 20.7316 113.757 20.7241C120.48 20.7127 124.743 22.211 128.326 25.8451L129.776 27.315L127.485 27.2746C126.226 27.2524 124.059 27.0069 122.672 26.729ZM47.4927 18.2606C46.6228 18.0952 45.7915 17.8427 45.6454 17.6995C45.1685 17.2319 46.3249 16.2909 48.562 15.3264C51.9208 13.8783 57.1471 13.9691 62.0065 15.5599C64.0304 16.2225 65.6864 16.9119 65.6864 17.0919C65.6864 17.2719 64.9767 17.4208 64.1093 17.4226C63.2419 17.4245 60.4505 17.6992 57.9061 18.0331C52.969 18.6809 50.0398 18.7449 47.4927 18.2606ZM107.111 18.2522C105.723 18.0672 103.017 17.776 101.098 17.6051C99.1781 17.4343 97.7588 17.1495 97.9435 16.9722C98.6538 16.291 104.735 14.5623 107.343 14.3003C110.499 13.9832 114.649 14.839 116.617 16.2128C118.019 17.1914 118.136 17.63 117.099 18.0206C115.897 18.4736 109.827 18.6143 107.111 18.2522ZM41.5309 16.7573C40.6102 13.1605 43.3676 8.69995 48.6931 5.17136C50.0594 4.26612 51.5831 3.31564 52.0793 3.05919L52.9813 2.59293L52.2313 5.4514C51.1761 9.4736 49.9906 11.6629 47.5532 14.0906C45.8276 15.8093 42.8189 17.8315 41.9874 17.8315C41.8876 17.8315 41.6822 17.3481 41.5309 16.7573ZM119.474 17.009C117.498 15.9863 113.701 11.8988 112.727 9.74595C111.922 7.96737 110.519 3.00918 110.757 2.787C110.834 2.71583 112.268 3.52856 113.945 4.59307C117.338 6.74683 120.995 10.672 121.668 12.8823C122.179 14.5635 122.021 17.5092 121.41 17.6773C121.179 17.7409 120.308 17.4402 119.474 17.009ZM54.9795 9.48197C55.8566 5.48868 58.0275 3.8459 64.635 2.17546C66.2541 1.76613 67.9292 1.29055 68.3574 1.11863C69.834 0.525705 67.919 3.31275 64.643 6.52472C61.4958 9.61025 59.0315 10.822 55.9039 10.822C54.7489 10.822 54.7005 10.7519 54.9795 9.48197ZM103.986 10.143C102.96 9.79121 101.373 8.91872 100.459 8.20415C98.8991 6.98535 94.1743 1.30886 94.4746 1.01442C94.5501 0.940348 95.5317 1.15908 96.656 1.50048C97.7802 1.84189 99.9035 2.45537 101.374 2.86379C105.47 4.00099 108.583 7.07562 108.583 9.98414C108.583 10.6586 108.316 10.8182 107.216 10.8023C106.464 10.7915 105.011 10.4948 103.986 10.143Z" fill="#8FAE44" stroke="#8FAE44" stroke-width="1.015"/>
</g>
<defs>
<filter id="filter0_d" x="0.793457" y="0.492432" width="160.714" height="147.015" filterUnits="userSpaceOnUse" color-interpolation-filters="sRGB">
<feFlood flood-opacity="0" result="BackgroundImageFix"/>
<feColorMatrix in="SourceAlpha" type="matrix" values="0 0 0 0 0 0 0 0 0 0 0 0 0 0 0 0 0 0 127 0"/>
<feOffset dy="4"/>
<feGaussianBlur stdDeviation="2"/>
<feColorMatrix type="matrix" values="0 0 0 0 0 0 0 0 0 0 0 0 0 0 0 0 0 0 0.25 0"/>
<feBlend mode="normal" in2="BackgroundImageFix" result="effect1_dropShadow"/>
<feBlend mode="normal" in="SourceGraphic" in2="effect1_dropShadow" result="shape"/>
</filter>
</defs>
</svg>
