<svg width="128" height="127" viewBox="0 0 128 127" fill="none" xmlns="http://www.w3.org/2000/svg">
<g filter="url(#filter0_d)">
<path d="M63.7775 2.27856C52.7772 2.27856 42.0238 5.5062 32.8774 11.5533C23.7309 17.6004 16.6021 26.1954 12.3924 36.2514C8.18279 46.3074 7.08135 57.3727 9.22742 68.0481C11.3735 78.7235 16.6707 88.5295 24.4491 96.226C32.2275 103.923 42.1378 109.164 52.9268 111.287C63.7158 113.411 74.8989 112.321 85.0619 108.156C95.2249 103.99 103.911 96.9366 110.023 87.8865C116.134 78.8363 119.396 68.1962 119.396 57.3117C119.396 42.716 113.536 28.7181 103.106 18.3974C92.6754 8.07668 78.5285 2.27856 63.7775 2.27856ZM95.5597 92.3717V89.9817C95.6701 84.6215 93.6514 79.4322 89.9373 75.5286C86.2232 71.625 81.1099 69.3185 75.6958 69.1045H51.8592C46.4497 69.3195 41.3417 71.6272 37.6342 75.5308C33.9268 79.4345 31.9162 84.6222 32.0351 89.9778C32.0351 90.021 31.9953 90.0643 31.9953 90.1075V92.4071C24.7884 86.0416 19.7049 77.6607 17.4179 68.3736C15.1309 59.0865 15.7481 49.3311 19.1879 40.3987C22.6277 31.4664 28.7278 23.7782 36.6809 18.3518C44.6339 12.9255 54.0649 10.0168 63.7255 10.0108C73.386 10.0048 82.8207 12.9018 90.7806 18.3184C98.7405 23.7349 104.85 31.4155 108.301 40.3436C111.752 49.2717 112.382 59.0263 110.107 68.3163C107.831 77.6062 102.759 85.9934 95.5597 92.3678V92.3717Z" fill="white"/>
<path d="M63.7779 28.1536C59.8492 28.1536 56.0088 29.3063 52.7422 31.466C49.4756 33.6257 46.9296 36.6953 45.4261 40.2867C43.9227 43.8782 43.5293 47.8301 44.2958 51.6427C45.0622 55.4553 46.9541 58.9575 49.7321 61.7062C52.5101 64.455 56.0495 66.3269 59.9027 67.0853C63.7559 67.8437 67.7499 67.4544 71.3795 65.9668C75.0092 64.4792 78.1115 61.96 80.2941 58.7278C82.4768 55.4956 83.6418 51.6956 83.6418 47.8083C83.6418 42.5955 81.549 37.5963 77.8238 33.9103C74.0986 30.2243 69.0462 28.1536 63.7779 28.1536Z" fill="white"/>
</g>
<defs>
<filter id="filter0_d" x="-3.78662" y="0.636963" width="135.129" height="133.79" filterUnits="userSpaceOnUse" color-interpolation-filters="sRGB">
<feFlood flood-opacity="0" result="BackgroundImageFix"/>
<feColorMatrix in="SourceAlpha" type="matrix" values="0 0 0 0 0 0 0 0 0 0 0 0 0 0 0 0 0 0 127 0"/>
<feOffset dy="4"/>
<feGaussianBlur stdDeviation="2"/>
<feColorMatrix type="matrix" values="0 0 0 0 0 0 0 0 0 0 0 0 0 0 0 0 0 0 0.25 0"/>
<feBlend mode="normal" in2="BackgroundImageFix" result="effect1_dropShadow"/>
<feBlend mode="normal" in="SourceGraphic" in2="effect1_dropShadow" result="shape"/>
</filter>
</defs>
</svg>
