<svg width="40" height="41" viewBox="0 0 40 41" fill="none" xmlns="http://www.w3.org/2000/svg">
<path d="M0 6.5C0 3.18629 2.68629 0.5 6 0.5H34C37.3137 0.5 40 3.18629 40 6.5V34.5C40 37.8137 37.3137 40.5 34 40.5H6C2.68629 40.5 0 37.8137 0 34.5V6.5Z" fill="#EEAFA9"/>
<path d="M32.1841 13.6841L27.3159 8.81592C26.7935 8.2935 26.0849 8 25.3461 8H9.78571C8.24719 8 7 9.24719 7 10.7857V31.2143C7 32.7528 8.24719 34 9.78571 34H30.2143C31.7528 34 33 32.7528 33 31.2143V15.6539C33 14.9151 32.7065 14.2065 32.1841 13.6841V13.6841ZM22.7857 10.7857V15.4286H15.3571V10.7857H22.7857ZM29.8661 31.2143H10.1339C10.0416 31.2143 9.95301 31.1776 9.8877 31.1123C9.8224 31.047 9.78571 30.9584 9.78571 30.8661V11.1339C9.78571 11.0416 9.8224 10.953 9.8877 10.8877C9.95301 10.8224 10.0416 10.7857 10.1339 10.7857H12.5714V16.8214C12.5714 17.5907 13.195 18.2143 13.9643 18.2143H24.1786C24.9478 18.2143 25.5714 17.5907 25.5714 16.8214V11.011L30.1123 15.5519C30.1447 15.5842 30.1703 15.6226 30.1878 15.6649C30.2053 15.7071 30.2143 15.7524 30.2143 15.7981V30.8661C30.2143 30.9584 30.1776 31.047 30.1123 31.1123C30.047 31.1776 29.9584 31.2143 29.8661 31.2143V31.2143ZM20 19.6071C17.1839 19.6071 14.8929 21.8982 14.8929 24.7143C14.8929 27.5304 17.1839 29.8214 20 29.8214C22.8161 29.8214 25.1071 27.5304 25.1071 24.7143C25.1071 21.8982 22.8161 19.6071 20 19.6071ZM20 27.0357C18.72 27.0357 17.6786 25.9943 17.6786 24.7143C17.6786 23.4342 18.72 22.3929 20 22.3929C21.28 22.3929 22.3214 23.4342 22.3214 24.7143C22.3214 25.9943 21.28 27.0357 20 27.0357Z" fill="white"/>
</svg>
