<svg width="41" height="47" viewBox="0 0 41 47" fill="none" xmlns="http://www.w3.org/2000/svg">
<rect width="41" height="47" fill="white" fill-opacity="0.97"/>
<path d="M36.6071 44.0625H4.39286C1.96763 44.0625 0 42.0889 0 39.6562V7.34375C0 4.91113 1.96763 2.9375 4.39286 2.9375H36.6071C39.0324 2.9375 41 4.91113 41 7.34375V39.6562C41 42.0889 39.0324 44.0625 36.6071 44.0625ZM21.7904 16.3307L9.37143 28.7875L8.79487 34.0291C8.72165 34.7268 9.30737 35.3234 10.0121 35.25L15.2377 34.6717L27.6567 22.2148C27.8672 22.0037 27.8672 21.6549 27.6567 21.4346L22.5775 16.3398C22.3487 16.1195 22.0009 16.1195 21.7904 16.3307ZM31.5737 15.1557L28.819 12.3926C27.9587 11.5297 26.5676 11.5297 25.7165 12.3926L23.6025 14.5131C23.392 14.7242 23.392 15.073 23.6025 15.2934L28.6817 20.3881C28.8922 20.5992 29.24 20.5992 29.4596 20.3881L31.5737 18.2676C32.4248 17.4139 32.4248 16.0186 31.5737 15.1557Z" fill="#69C5B2"/>
</svg>
