<svg width="40" height="42" viewBox="0 0 40 42" fill="none" xmlns="http://www.w3.org/2000/svg">
<path d="M0 6.5C0 3.18629 2.68629 0.5 6 0.5H34C37.3137 0.5 40 3.18629 40 6.5V34.5C40 37.8137 37.3137 40.5 34 40.5H6C2.68629 40.5 0 37.8137 0 34.5V6.5Z" fill="white"/>
<path d="M35.7143 41.125H4.28571C1.91964 41.125 0 39.1514 0 36.7188V4.40625C0 1.97363 1.91964 0 4.28571 0H35.7143C38.0804 0 40 1.97363 40 4.40625V36.7188C40 39.1514 38.0804 41.125 35.7143 41.125ZM21.2589 13.3932L9.14286 25.85L8.58036 31.0916C8.50893 31.7893 9.08036 32.3859 9.76786 32.3125L14.8661 31.7342L26.9821 19.2773C27.1875 19.0662 27.1875 18.7174 26.9821 18.4971L22.0268 13.4023C21.8036 13.182 21.4643 13.182 21.2589 13.3932ZM30.8036 12.2182L28.1161 9.45508C27.2768 8.59219 25.9196 8.59219 25.0893 9.45508L23.0268 11.5756C22.8214 11.7867 22.8214 12.1355 23.0268 12.3559L27.9821 17.4506C28.1875 17.6617 28.5268 17.6617 28.7411 17.4506L30.8036 15.3301C31.6339 14.4764 31.6339 13.0811 30.8036 12.2182Z" fill="#E27A70" fill-opacity="0.6"/>
</svg>
